{"asset":{"version":"2.0","generator":"babylon.js glTF exporter for 3dsmax 2022 v20220411.1"},"scene":0,"scenes":[{"nodes":[0,1]}],"nodes":[{"skin":0,"mesh":0,"translation":[-1.23955326E-08,-9.032611E-08,0.363390982],"rotation":[-0.7071067,-6.409742E-10,-6.439588E-10,0.7071068],"scale":[1.00000012,1.00000012,1.00000012],"name":"Char_1"},{"children":[2],"rotation":[8.146034E-08,0.0,0.0,1.0],"name":"Armature_1"},{"children":[3,4,5],"translation":[-0.0139391413,0.000814872852,0.0],"rotation":[-0.5142963,0.496650159,0.5029405,0.485683858],"scale":[1.0,1.0,1.00000012],"name":"Bone_Body"},{"translation":[1.81642771,-1.39284126E-07,-1.05125459E-07],"rotation":[-0.052335944,-5.87538551E-08,0.0,0.99862957],"scale":[0.9999998,0.9999997,0.9999998],"name":"Bone_Head"},{"translation":[1.09731376,0.9136771,-0.0469752476],"rotation":[2.37011371E-08,-0.999241352,2.39438464E-06,-0.0389451943],"scale":[0.7243751,0.999999762,1.0],"name":"Bone_R_Arm"},{"translation":[1.11006212,-0.9262788,-0.0466638133],"rotation":[5.40690559E-09,-0.999241352,2.399045E-06,-0.0389451943],"scale":[0.7243732,0.9999998,0.9999997],"name":"Bone_L_Arm"}],"meshes":[{"primitives":[{"attributes":{"POSITION":1,"NORMAL":2,"COLOR_0":3,"TEXCOORD_0":4,"JOINTS_0":5,"WEIGHTS_0":6},"indices":0,"material":0},{"attributes":{"POSITION":8,"NORMAL":9,"COLOR_0":10,"TEXCOORD_0":11,"JOINTS_0":12,"WEIGHTS_0":13},"indices":7,"material":1},{"attributes":{"POSITION":15,"NORMAL":16,"COLOR_0":17,"TEXCOORD_0":18,"JOINTS_0":19,"WEIGHTS_0":20},"indices":14,"material":2},{"attributes":{"POSITION":22,"NORMAL":23,"COLOR_0":24,"TEXCOORD_0":25,"JOINTS_0":26,"WEIGHTS_0":27},"indices":21,"material":3},{"attributes":{"POSITION":29,"NORMAL":30,"COLOR_0":31,"TEXCOORD_0":32,"JOINTS_0":33,"WEIGHTS_0":34},"indices":28,"material":4}],"name":"Char_1"}],"accessors":[{"bufferView":0,"componentType":5123,"count":303,"type":"SCALAR","name":"accessorIndices"},{"bufferView":1,"componentType":5126,"count":208,"max":[1.2645371,4.166923,0.621821761],"min":[-1.26869488,0.870531559,-0.6538273],"type":"VEC3","name":"accessorPositions"},{"bufferView":1,"byteOffset":2496,"componentType":5126,"count":208,"type":"VEC3","name":"accessorNormals"},{"bufferView":2,"componentType":5126,"count":208,"type":"VEC4","name":"accessorColors"},{"bufferView":3,"componentType":5126,"count":208,"type":"VEC2","name":"accessorUVs"},{"bufferView":4,"componentType":5123,"count":208,"type":"VEC4","name":"accessorJoints"},{"bufferView":2,"byteOffset":3328,"componentType":5126,"count":208,"type":"VEC4","name":"accessorWeights"},{"bufferView":0,"byteOffset":608,"componentType":5123,"count":279,"type":"SCALAR","name":"accessorIndices"},{"bufferView":1,"byteOffset":4992,"componentType":5126,"count":371,"max":[1.2645371,4.166923,0.621821761],"min":[-1.26869488,0.363390923,-0.6538273],"type":"VEC3","name":"accessorPositions"},{"bufferView":1,"byteOffset":9444,"componentType":5126,"count":371,"type":"VEC3","name":"accessorNormals"},{"bufferView":2,"byteOffset":6656,"componentType":5126,"count":371,"type":"VEC4","name":"accessorColors"},{"bufferView":3,"byteOffset":1664,"componentType":5126,"count":371,"type":"VEC2","name":"accessorUVs"},{"bufferView":4,"byteOffset":1664,"componentType":5123,"count":371,"type":"VEC4","name":"accessorJoints"},{"bufferView":2,"byteOffset":12592,"componentType":5126,"count":371,"type":"VEC4","name":"accessorWeights"},{"bufferView":0,"byteOffset":1168,"componentType":5123,"count":1251,"type":"SCALAR","name":"accessorIndices"},{"bufferView":1,"byteOffset":13896,"componentType":5126,"count":1075,"max":[1.52111411,4.16698647,1.1251055],"min":[-1.52217746,0.363390923,-1.41250765],"type":"VEC3","name":"accessorPositions"},{"bufferView":1,"byteOffset":26796,"componentType":5126,"count":1075,"type":"VEC3","name":"accessorNormals"},{"bufferView":2,"byteOffset":18528,"componentType":5126,"count":1075,"type":"VEC4","name":"accessorColors"},{"bufferView":3,"byteOffset":4632,"componentType":5126,"count":1075,"type":"VEC2","name":"accessorUVs"},{"bufferView":4,"byteOffset":4632,"componentType":5123,"count":1075,"type":"VEC4","name":"accessorJoints"},{"bufferView":2,"byteOffset":35728,"componentType":5126,"count":1075,"type":"VEC4","name":"accessorWeights"},{"bufferView":0,"byteOffset":3672,"componentType":5123,"count":252,"type":"SCALAR","name":"accessorIndices"},{"bufferView":1,"byteOffset":39696,"componentType":5126,"count":184,"max":[1.26978052,1.228227,0.323832929],"min":[-1.26652062,0.6169608,-0.451384068],"type":"VEC3","name":"accessorPositions"},{"bufferView":1,"byteOffset":41904,"componentType":5126,"count":184,"type":"VEC3","name":"accessorNormals"},{"bufferView":2,"byteOffset":52928,"componentType":5126,"count":184,"type":"VEC4","name":"accessorColors"},{"bufferView":3,"byteOffset":13232,"componentType":5126,"count":184,"type":"VEC2","name":"accessorUVs"},{"bufferView":4,"byteOffset":13232,"componentType":5123,"count":184,"type":"VEC4","name":"accessorJoints"},{"bufferView":2,"byteOffset":55872,"componentType":5126,"count":184,"type":"VEC4","name":"accessorWeights"},{"bufferView":0,"byteOffset":4176,"componentType":5123,"count":132,"type":"SCALAR","name":"accessorIndices"},{"bufferView":1,"byteOffset":44112,"componentType":5126,"count":72,"max":[1.26854563,4.427479,-0.138881534],"min":[-1.26805031,3.40614581,-0.4029594],"type":"VEC3","name":"accessorPositions"},{"bufferView":1,"byteOffset":44976,"componentType":5126,"count":72,"type":"VEC3","name":"accessorNormals"},{"bufferView":2,"byteOffset":58816,"componentType":5126,"count":72,"type":"VEC4","name":"accessorColors"},{"bufferView":3,"byteOffset":14704,"componentType":5126,"count":72,"type":"VEC2","name":"accessorUVs"},{"bufferView":4,"byteOffset":14704,"componentType":5123,"count":72,"type":"VEC4","name":"accessorJoints"},{"bufferView":2,"byteOffset":59968,"componentType":5126,"count":72,"type":"VEC4","name":"accessorWeights"},{"bufferView":5,"componentType":5126,"count":5,"type":"MAT4","name":"accessorInverseBindMatrices"}],"bufferViews":[{"buffer":0,"byteLength":4440,"name":"bufferViewScalar"},{"buffer":0,"byteOffset":4440,"byteLength":45840,"byteStride":12,"name":"bufferViewFloatVec3"},{"buffer":0,"byteOffset":50280,"byteLength":61120,"byteStride":16,"name":"bufferViewFloatVec4"},{"buffer":0,"byteOffset":111400,"byteLength":15280,"byteStride":8,"name":"bufferViewFloatVec2"},{"buffer":0,"byteOffset":126680,"byteLength":15280,"byteStride":8,"name":"bufferViewUnsignedShortVec4"},{"buffer":0,"byteOffset":141960,"byteLength":320,"name":"bufferViewFloatMat4"}],"buffers":[{"uri":"Char_1.bin","byteLength":142280}],"materials":[{"pbrMetallicRoughness":{"baseColorTexture":{"index":0},"metallicFactor":0.0,"roughnessFactor":0.9},"doubleSided":true,"name":"disable.001"},{"pbrMetallicRoughness":{"baseColorTexture":{"index":0},"metallicFactor":0.0,"roughnessFactor":0.5356144},"doubleSided":true,"name":"enable.003"},{"pbrMetallicRoughness":{"baseColorTexture":{"index":0},"metallicFactor":0.0,"roughnessFactor":0.5356144},"doubleSided":true,"name":"enable.004"},{"pbrMetallicRoughness":{"baseColorTexture":{"index":0},"metallicFactor":0.0,"roughnessFactor":0.5356144},"doubleSided":true,"name":"enable.005"},{"pbrMetallicRoughness":{"baseColorTexture":{"index":0},"metallicFactor":0.0,"roughnessFactor":0.5356144},"doubleSided":true,"name":"enable.021"}],"textures":[{"sampler":0,"source":0,"name":"Char_2_final_Diffuse.png"}],"images":[{"uri":"Char_2_final_Diffuse.png"}],"samplers":[{"magFilter":9729,"minFilter":9987}],"skins":[{"inverseBindMatrices":35,"skeleton":1,"joints":[1,2,3,4,5],"name":"skeleton #0"}]}