{"asset":{"version":"2.0","generator":"babylon.js glTF exporter for 3dsmax 2022 v20220411.1"},"scene":0,"scenes":[{"nodes":[0,1]}],"nodes":[{"skin":0,"mesh":0,"translation":[-2.99006722E-08,7.526019E-09,0.157408386],"rotation":[-0.7071067,-6.264794E-10,6.93362756E-10,0.7071068],"scale":[1.00000012,1.00000012,1.00000012],"name":"Char_2"},{"children":[2],"rotation":[8.146034E-08,0.0,0.0,1.0],"name":"Armature_2"},{"children":[3,4,5],"translation":[-0.0139391413,0.000814872852,0.0],"rotation":[-0.5142963,0.496650159,0.5029405,0.485683858],"scale":[1.0,1.0,1.00000012],"name":"Bone_Body"},{"translation":[1.81642771,-1.39284126E-07,-1.05125459E-07],"rotation":[-0.05233596,0.0,0.0,0.99862957],"scale":[0.9999998,0.999999762,0.9999998],"name":"Bone_Head"},{"translation":[1.09731364,0.913676858,-0.0469752438],"rotation":[-2.12759179E-08,-0.999241352,-2.41395674E-06,-0.038944602],"scale":[0.7243888,0.9999999,1.00000012],"name":"Bone_R_Arm"},{"translation":[1.11006224,-0.9262789,-0.0466638133],"rotation":[-2.23459971E-08,-0.999241352,-2.384132E-06,-0.038944602],"scale":[0.72438854,1.0,1.0],"name":"Bone_L_Arm"}],"meshes":[{"primitives":[{"attributes":{"POSITION":1,"NORMAL":2,"COLOR_0":3,"TEXCOORD_0":4,"JOINTS_0":5,"WEIGHTS_0":6},"indices":0,"material":0},{"attributes":{"POSITION":8,"NORMAL":9,"COLOR_0":10,"TEXCOORD_0":11,"JOINTS_0":12,"WEIGHTS_0":13},"indices":7,"material":1},{"attributes":{"POSITION":15,"NORMAL":16,"COLOR_0":17,"TEXCOORD_0":18,"JOINTS_0":19,"WEIGHTS_0":20},"indices":14,"material":2},{"attributes":{"POSITION":22,"NORMAL":23,"COLOR_0":24,"TEXCOORD_0":25,"JOINTS_0":26,"WEIGHTS_0":27},"indices":21,"material":3}],"name":"Char_2"}],"accessors":[{"bufferView":0,"componentType":5123,"count":198,"type":"SCALAR","name":"accessorIndices"},{"bufferView":1,"componentType":5126,"count":127,"max":[1.52097821,3.96096158,0.664551258],"min":[-1.77500057,0.454407424,-0.856877744],"type":"VEC3","name":"accessorPositions"},{"bufferView":1,"byteOffset":1524,"componentType":5126,"count":127,"type":"VEC3","name":"accessorNormals"},{"bufferView":2,"componentType":5126,"count":127,"type":"VEC4","name":"accessorColors"},{"bufferView":3,"componentType":5126,"count":127,"type":"VEC2","name":"accessorUVs"},{"bufferView":4,"componentType":5123,"count":127,"type":"VEC4","name":"accessorJoints"},{"bufferView":2,"byteOffset":2032,"componentType":5126,"count":127,"type":"VEC4","name":"accessorWeights"},{"bufferView":0,"byteOffset":396,"componentType":5123,"count":570,"type":"SCALAR","name":"accessorIndices"},{"bufferView":1,"byteOffset":3048,"componentType":5126,"count":381,"max":[1.52097821,4.21453047,0.9181228],"min":[-1.77500069,0.454407424,-1.11044931],"type":"VEC3","name":"accessorPositions"},{"bufferView":1,"byteOffset":7620,"componentType":5126,"count":381,"type":"VEC3","name":"accessorNormals"},{"bufferView":2,"byteOffset":4064,"componentType":5126,"count":381,"type":"VEC4","name":"accessorColors"},{"bufferView":3,"byteOffset":1016,"componentType":5126,"count":381,"type":"VEC2","name":"accessorUVs"},{"bufferView":4,"byteOffset":1016,"componentType":5123,"count":381,"type":"VEC4","name":"accessorJoints"},{"bufferView":2,"byteOffset":10160,"componentType":5126,"count":381,"type":"VEC4","name":"accessorWeights"},{"bufferView":0,"byteOffset":1536,"componentType":5123,"count":576,"type":"SCALAR","name":"accessorIndices"},{"bufferView":1,"byteOffset":12192,"componentType":5126,"count":327,"max":[1.26785719,3.70738983,0.6645513],"min":[-1.268449,0.157408386,-1.11044943],"type":"VEC3","name":"accessorPositions"},{"bufferView":1,"byteOffset":16116,"componentType":5126,"count":327,"type":"VEC3","name":"accessorNormals"},{"bufferView":2,"byteOffset":16256,"componentType":5126,"count":327,"type":"VEC4","name":"accessorColors"},{"bufferView":3,"byteOffset":4064,"componentType":5126,"count":327,"type":"VEC2","name":"accessorUVs"},{"bufferView":4,"byteOffset":4064,"componentType":5123,"count":327,"type":"VEC4","name":"accessorJoints"},{"bufferView":2,"byteOffset":21488,"componentType":5126,"count":327,"type":"VEC4","name":"accessorWeights"},{"bufferView":0,"byteOffset":2688,"componentType":5123,"count":162,"type":"SCALAR","name":"accessorIndices"},{"bufferView":1,"byteOffset":20040,"componentType":5126,"count":94,"max":[1.01428568,3.45381975,0.6645513],"min":[-1.01436663,1.67882931,-0.6033064],"type":"VEC3","name":"accessorPositions"},{"bufferView":1,"byteOffset":21168,"componentType":5126,"count":94,"type":"VEC3","name":"accessorNormals"},{"bufferView":2,"byteOffset":26720,"componentType":5126,"count":94,"type":"VEC4","name":"accessorColors"},{"bufferView":3,"byteOffset":6680,"componentType":5126,"count":94,"type":"VEC2","name":"accessorUVs"},{"bufferView":4,"byteOffset":6680,"componentType":5123,"count":94,"type":"VEC4","name":"accessorJoints"},{"bufferView":2,"byteOffset":28224,"componentType":5126,"count":94,"type":"VEC4","name":"accessorWeights"},{"bufferView":5,"componentType":5126,"count":5,"type":"MAT4","name":"accessorInverseBindMatrices"}],"bufferViews":[{"buffer":0,"byteLength":3012,"name":"bufferViewScalar"},{"buffer":0,"byteOffset":3012,"byteLength":22296,"byteStride":12,"name":"bufferViewFloatVec3"},{"buffer":0,"byteOffset":25308,"byteLength":29728,"byteStride":16,"name":"bufferViewFloatVec4"},{"buffer":0,"byteOffset":55036,"byteLength":7432,"byteStride":8,"name":"bufferViewFloatVec2"},{"buffer":0,"byteOffset":62468,"byteLength":7432,"byteStride":8,"name":"bufferViewUnsignedShortVec4"},{"buffer":0,"byteOffset":69900,"byteLength":320,"name":"bufferViewFloatMat4"}],"buffers":[{"uri":"Char_2.bin","byteLength":70220}],"materials":[{"pbrMetallicRoughness":{"baseColorTexture":{"index":0},"metallicFactor":0.0,"roughnessFactor":0.9},"doubleSided":true,"name":"disable.002"},{"pbrMetallicRoughness":{"baseColorTexture":{"index":0},"metallicFactor":0.0,"roughnessFactor":0.5356144},"doubleSided":true,"name":"enable.006"},{"pbrMetallicRoughness":{"baseColorTexture":{"index":0},"metallicFactor":0.0,"roughnessFactor":0.5356144},"doubleSided":true,"name":"enable.007"},{"pbrMetallicRoughness":{"baseColorTexture":{"index":0},"metallicFactor":0.0,"roughnessFactor":0.5356144},"doubleSided":true,"name":"enable"}],"textures":[{"sampler":0,"source":0,"name":"Char_3_final_Diffuse.png"}],"images":[{"uri":"Char_3_final_Diffuse.png"}],"samplers":[{"magFilter":9729,"minFilter":9987}],"skins":[{"inverseBindMatrices":28,"skeleton":1,"joints":[1,2,3,4,5],"name":"skeleton #0"}]}