{"asset":{"version":"2.0","generator":"babylon.js glTF exporter for 3dsmax 2022 v20220411.1"},"scene":0,"scenes":[{"nodes":[0,1]}],"nodes":[{"skin":0,"mesh":0,"translation":[-0.101982325,0.390390277,0.08036899],"rotation":[1.33162033E-07,-2.74081886E-12,8.6402E-12,1.0],"scale":[1.00000012,1.00000012,1.00000012],"name":"Char_3"},{"children":[2],"rotation":[8.146034E-08,0.0,0.0,1.0],"name":"Armature_3"},{"children":[3,4,5],"translation":[-0.0139391413,0.000814872852,0.0],"rotation":[-0.5142962,0.496650219,0.502940655,0.485683858],"scale":[1.0,1.0,0.9999997],"name":"Bone_Body"},{"translation":[1.81445777,-0.00308254245,0.08824647],"rotation":[-0.0523359366,-5.922014E-08,0.0,0.99862957],"scale":[1.0,0.99999994,1.0],"name":"Bone_Head"},{"translation":[1.34209752,0.630244851,-0.07894425],"rotation":[-7.821647E-08,-0.9999991,2.396295E-06,0.00134439836],"scale":[1.00000346,1.0,0.99999994],"name":"Bone_R_Arm"},{"translation":[1.34309471,-0.648975968,-0.1236043],"rotation":[-8.92759644E-08,-0.999999762,2.383255E-06,0.0007171196],"scale":[1.00000107,1.00000012,1.0],"name":"Bone_L_Arm"}],"meshes":[{"primitives":[{"attributes":{"POSITION":1,"NORMAL":2,"COLOR_0":3,"TEXCOORD_0":4,"JOINTS_0":5,"WEIGHTS_0":6},"indices":0,"material":0},{"attributes":{"POSITION":8,"NORMAL":9,"COLOR_0":10,"TEXCOORD_0":11,"JOINTS_0":12,"WEIGHTS_0":13},"indices":7,"material":1},{"attributes":{"POSITION":15,"NORMAL":16,"COLOR_0":17,"TEXCOORD_0":18,"JOINTS_0":19,"WEIGHTS_0":20},"indices":14,"material":2},{"attributes":{"POSITION":22,"NORMAL":23,"COLOR_0":24,"TEXCOORD_0":25,"JOINTS_0":26,"WEIGHTS_0":27},"indices":21,"material":3},{"attributes":{"POSITION":29,"NORMAL":30,"COLOR_0":31,"TEXCOORD_0":32,"JOINTS_0":33,"WEIGHTS_0":34},"indices":28,"material":4}],"name":"Char_3"}],"accessors":[{"bufferView":0,"componentType":5123,"count":360,"type":"SCALAR","name":"accessorIndices"},{"bufferView":1,"componentType":5126,"count":254,"max":[1.11626947,0.372500241,-0.0803686157],"min":[-0.912305057,-1.27348793,-2.89350843],"type":"VEC3","name":"accessorPositions"},{"bufferView":1,"byteOffset":3048,"componentType":5126,"count":254,"type":"VEC3","name":"accessorNormals"},{"bufferView":2,"componentType":5126,"count":254,"type":"VEC4","name":"accessorColors"},{"bufferView":3,"componentType":5126,"count":254,"type":"VEC2","name":"accessorUVs"},{"bufferView":4,"componentType":5123,"count":254,"type":"VEC4","name":"accessorJoints"},{"bufferView":2,"byteOffset":4064,"componentType":5126,"count":254,"type":"VEC4","name":"accessorWeights"},{"bufferView":0,"byteOffset":720,"componentType":5123,"count":558,"type":"SCALAR","name":"accessorIndices"},{"bufferView":1,"byteOffset":6096,"componentType":5126,"count":558,"max":[1.11837912,0.627797842,-0.0803686157],"min":[-0.916098833,-1.40655482,-3.88396788],"type":"VEC3","name":"accessorPositions"},{"bufferView":1,"byteOffset":12792,"componentType":5126,"count":558,"type":"VEC3","name":"accessorNormals"},{"bufferView":2,"byteOffset":8128,"componentType":5126,"count":558,"type":"VEC4","name":"accessorColors"},{"bufferView":3,"byteOffset":2032,"componentType":5126,"count":558,"type":"VEC2","name":"accessorUVs"},{"bufferView":4,"byteOffset":2032,"componentType":5123,"count":558,"type":"VEC4","name":"accessorJoints"},{"bufferView":2,"byteOffset":17056,"componentType":5126,"count":558,"type":"VEC4","name":"accessorWeights"},{"bufferView":0,"byteOffset":1836,"componentType":5123,"count":264,"type":"SCALAR","name":"accessorIndices"},{"bufferView":1,"byteOffset":19488,"componentType":5126,"count":562,"max":[1.71253169,0.627797842,0.136490837],"min":[-1.58389986,-1.52632654,-3.88396788],"type":"VEC3","name":"accessorPositions"},{"bufferView":1,"byteOffset":26232,"componentType":5126,"count":562,"type":"VEC3","name":"accessorNormals"},{"bufferView":2,"byteOffset":25984,"componentType":5126,"count":562,"type":"VEC4","name":"accessorColors"},{"bufferView":3,"byteOffset":6496,"componentType":5126,"count":562,"type":"VEC2","name":"accessorUVs"},{"bufferView":4,"byteOffset":6496,"componentType":5123,"count":562,"type":"VEC4","name":"accessorJoints"},{"bufferView":2,"byteOffset":34976,"componentType":5126,"count":562,"type":"VEC4","name":"accessorWeights"},{"bufferView":0,"byteOffset":2364,"componentType":5123,"count":138,"type":"SCALAR","name":"accessorIndices"},{"bufferView":1,"byteOffset":32976,"componentType":5126,"count":86,"max":[0.862697065,0.3703242,-0.08036869],"min":[-0.6587325,-1.16602314,-1.60178971],"type":"VEC3","name":"accessorPositions"},{"bufferView":1,"byteOffset":34008,"componentType":5126,"count":86,"type":"VEC3","name":"accessorNormals"},{"bufferView":2,"byteOffset":43968,"componentType":5126,"count":86,"type":"VEC4","name":"accessorColors"},{"bufferView":3,"byteOffset":10992,"componentType":5126,"count":86,"type":"VEC2","name":"accessorUVs"},{"bufferView":4,"byteOffset":10992,"componentType":5123,"count":86,"type":"VEC4","name":"accessorJoints"},{"bufferView":2,"byteOffset":45344,"componentType":5126,"count":86,"type":"VEC4","name":"accessorWeights"},{"bufferView":0,"byteOffset":2640,"componentType":5123,"count":81,"type":"SCALAR","name":"accessorIndices"},{"bufferView":1,"byteOffset":35040,"componentType":5126,"count":61,"max":[0.609125,0.370324254,-1.34821916],"min":[-0.40516144,-1.16602278,-1.85536],"type":"VEC3","name":"accessorPositions"},{"bufferView":1,"byteOffset":35772,"componentType":5126,"count":61,"type":"VEC3","name":"accessorNormals"},{"bufferView":2,"byteOffset":46720,"componentType":5126,"count":61,"type":"VEC4","name":"accessorColors"},{"bufferView":3,"byteOffset":11680,"componentType":5126,"count":61,"type":"VEC2","name":"accessorUVs"},{"bufferView":4,"byteOffset":11680,"componentType":5123,"count":61,"type":"VEC4","name":"accessorJoints"},{"bufferView":2,"byteOffset":47696,"componentType":5126,"count":61,"type":"VEC4","name":"accessorWeights"},{"bufferView":5,"componentType":5126,"count":5,"type":"MAT4","name":"accessorInverseBindMatrices"}],"bufferViews":[{"buffer":0,"byteLength":2804,"name":"bufferViewScalar"},{"buffer":0,"byteOffset":2804,"byteLength":36504,"byteStride":12,"name":"bufferViewFloatVec3"},{"buffer":0,"byteOffset":39308,"byteLength":48672,"byteStride":16,"name":"bufferViewFloatVec4"},{"buffer":0,"byteOffset":87980,"byteLength":12168,"byteStride":8,"name":"bufferViewFloatVec2"},{"buffer":0,"byteOffset":100148,"byteLength":12168,"byteStride":8,"name":"bufferViewUnsignedShortVec4"},{"buffer":0,"byteOffset":112316,"byteLength":320,"name":"bufferViewFloatMat4"}],"buffers":[{"uri":"Char_3.bin","byteLength":112636}],"materials":[{"pbrMetallicRoughness":{"baseColorTexture":{"index":0},"metallicFactor":0.0,"roughnessFactor":0.9},"doubleSided":true,"name":"disable.003"},{"pbrMetallicRoughness":{"baseColorTexture":{"index":0},"metallicFactor":0.0,"roughnessFactor":0.5356144},"doubleSided":true,"name":"enable.008"},{"pbrMetallicRoughness":{"baseColorTexture":{"index":0},"metallicFactor":0.0,"roughnessFactor":0.5356144},"doubleSided":true,"name":"enable.009"},{"pbrMetallicRoughness":{"baseColorTexture":{"index":0},"metallicFactor":0.0,"roughnessFactor":0.5356144},"doubleSided":true,"name":"enable.010"},{"pbrMetallicRoughness":{"baseColorTexture":{"index":0},"metallicFactor":0.0,"roughnessFactor":0.5356144},"doubleSided":true,"name":"enable.011"}],"textures":[{"sampler":0,"source":0,"name":"Char_4_final_Diffuse.png"}],"images":[{"uri":"Char_4_final_Diffuse.png"}],"samplers":[{"magFilter":9729,"minFilter":9987}],"skins":[{"inverseBindMatrices":35,"skeleton":1,"joints":[1,2,3,4,5],"name":"skeleton #0"}]}