{"asset":{"version":"2.0","generator":"babylon.js glTF exporter for 3dsmax 2022 v20220411.1"},"scene":0,"scenes":[{"nodes":[0,1]}],"nodes":[{"skin":0,"mesh":0,"translation":[3.70963953E-08,8.866522E-09,0.2894701],"rotation":[-0.7071067,1.60778658E-13,1.60776259E-13,0.7071068],"scale":[1.0,1.0,1.00000012],"name":"Char_0"},{"children":[2],"rotation":[8.146034E-08,0.0,0.0,1.0],"name":"Armature_0"},{"children":[3,4,5],"translation":[-0.0139391441,0.000814872852,0.0],"rotation":[-0.486759722,0.487778544,0.511878431,0.5129498],"scale":[0.9999997,0.999999642,0.999999762],"name":"Bone_Body"},{"translation":[1.81642842,-1.58965591E-07,3.93581757E-07],"rotation":[0.0154979024,0.0,0.0,0.999879837],"name":"Bone_Head"},{"translation":[1.09731388,0.913677454,-0.04697495],"rotation":[-6.651087E-07,-0.9900575,7.642986E-10,0.140663072],"scale":[0.7243725,1.0,1.0],"name":"Bone_R_Arm"},{"translation":[1.11006212,-0.926279,-0.0466630533],"rotation":[-6.518482E-07,-0.990447938,6.464593E-10,0.1378872],"scale":[0.7243726,1.0,1.0],"name":"Bone_L_Arm"}],"meshes":[{"primitives":[{"attributes":{"POSITION":1,"NORMAL":2,"COLOR_0":3,"TEXCOORD_0":4,"JOINTS_0":5,"WEIGHTS_0":6},"indices":0,"material":0},{"attributes":{"POSITION":8,"NORMAL":9,"COLOR_0":10,"TEXCOORD_0":11,"JOINTS_0":12,"WEIGHTS_0":13},"indices":7,"material":1},{"attributes":{"POSITION":15,"NORMAL":16,"COLOR_0":17,"TEXCOORD_0":18,"JOINTS_0":19,"WEIGHTS_0":20},"indices":14,"material":2},{"attributes":{"POSITION":22,"NORMAL":23,"COLOR_0":24,"TEXCOORD_0":25,"JOINTS_0":26,"WEIGHTS_0":27},"indices":21,"material":3}],"name":"Char_0"}],"accessors":[{"bufferView":0,"componentType":5123,"count":279,"type":"SCALAR","name":"accessorIndices"},{"bufferView":1,"componentType":5126,"count":191,"max":[1.26833034,3.05740881,0.8470979],"min":[-1.26789331,0.57475394,-1.12468934],"type":"VEC3","name":"accessorPositions"},{"bufferView":1,"byteOffset":2292,"componentType":5126,"count":191,"type":"VEC3","name":"accessorNormals"},{"bufferView":2,"componentType":5126,"count":191,"type":"VEC4","name":"accessorColors"},{"bufferView":3,"componentType":5126,"count":191,"type":"VEC2","name":"accessorUVs"},{"bufferView":4,"componentType":5123,"count":191,"type":"VEC4","name":"accessorJoints"},{"bufferView":2,"byteOffset":3056,"componentType":5126,"count":191,"type":"VEC4","name":"accessorWeights"},{"bufferView":0,"byteOffset":560,"componentType":5123,"count":627,"type":"SCALAR","name":"accessorIndices"},{"bufferView":1,"byteOffset":4584,"componentType":5126,"count":541,"max":[1.26859,3.87227917,0.985570848],"min":[-1.26873338,0.2494619,-1.12468934],"type":"VEC3","name":"accessorPositions"},{"bufferView":1,"byteOffset":11076,"componentType":5126,"count":541,"type":"VEC3","name":"accessorNormals"},{"bufferView":2,"byteOffset":6112,"componentType":5126,"count":541,"type":"VEC4","name":"accessorColors"},{"bufferView":3,"byteOffset":1528,"componentType":5126,"count":541,"type":"VEC2","name":"accessorUVs"},{"bufferView":4,"byteOffset":1528,"componentType":5123,"count":541,"type":"VEC4","name":"accessorJoints"},{"bufferView":2,"byteOffset":14768,"componentType":5126,"count":541,"type":"VEC4","name":"accessorWeights"},{"bufferView":0,"byteOffset":1816,"componentType":5123,"count":579,"type":"SCALAR","name":"accessorIndices"},{"bufferView":1,"byteOffset":17568,"componentType":5126,"count":483,"max":[1.28530526,3.87069869,0.985570848],"min":[-1.274158,0.2494619,-1.12468934],"type":"VEC3","name":"accessorPositions"},{"bufferView":1,"byteOffset":23364,"componentType":5126,"count":483,"type":"VEC3","name":"accessorNormals"},{"bufferView":2,"byteOffset":23424,"componentType":5126,"count":483,"type":"VEC4","name":"accessorColors"},{"bufferView":3,"byteOffset":5856,"componentType":5126,"count":483,"type":"VEC2","name":"accessorUVs"},{"bufferView":4,"byteOffset":5856,"componentType":5123,"count":483,"type":"VEC4","name":"accessorJoints"},{"bufferView":2,"byteOffset":31152,"componentType":5126,"count":483,"type":"VEC4","name":"accessorWeights"},{"bufferView":0,"byteOffset":2976,"componentType":5123,"count":108,"type":"SCALAR","name":"accessorIndices"},{"bufferView":1,"byteOffset":29160,"componentType":5126,"count":62,"max":[1.05708969,3.28928566,1.723781],"min":[-0.995534956,2.75493169,0.6355639],"type":"VEC3","name":"accessorPositions"},{"bufferView":1,"byteOffset":29904,"componentType":5126,"count":62,"type":"VEC3","name":"accessorNormals"},{"bufferView":2,"byteOffset":38880,"componentType":5126,"count":62,"type":"VEC4","name":"accessorColors"},{"bufferView":3,"byteOffset":9720,"componentType":5126,"count":62,"type":"VEC2","name":"accessorUVs"},{"bufferView":4,"byteOffset":9720,"componentType":5123,"count":62,"type":"VEC4","name":"accessorJoints"},{"bufferView":2,"byteOffset":39872,"componentType":5126,"count":62,"type":"VEC4","name":"accessorWeights"},{"bufferView":5,"componentType":5126,"count":5,"type":"MAT4","name":"accessorInverseBindMatrices"}],"bufferViews":[{"buffer":0,"byteLength":3192,"name":"bufferViewScalar"},{"buffer":0,"byteOffset":3192,"byteLength":30648,"byteStride":12,"name":"bufferViewFloatVec3"},{"buffer":0,"byteOffset":33840,"byteLength":40864,"byteStride":16,"name":"bufferViewFloatVec4"},{"buffer":0,"byteOffset":74704,"byteLength":10216,"byteStride":8,"name":"bufferViewFloatVec2"},{"buffer":0,"byteOffset":84920,"byteLength":10216,"byteStride":8,"name":"bufferViewUnsignedShortVec4"},{"buffer":0,"byteOffset":95136,"byteLength":320,"name":"bufferViewFloatMat4"}],"buffers":[{"uri":"Char_0.bin","byteLength":95456}],"materials":[{"pbrMetallicRoughness":{"baseColorTexture":{"index":0},"metallicFactor":0.0,"roughnessFactor":0.9},"doubleSided":true,"name":"disable.005"},{"pbrMetallicRoughness":{"baseColorTexture":{"index":0},"metallicFactor":0.0,"roughnessFactor":0.5356144},"doubleSided":true,"name":"enable.001"},{"pbrMetallicRoughness":{"baseColorTexture":{"index":0},"metallicFactor":0.0,"roughnessFactor":0.5356144},"doubleSided":true,"name":"enable.002"},{"pbrMetallicRoughness":{"baseColorTexture":{"index":0},"metallicFactor":0.0,"roughnessFactor":0.5356144},"doubleSided":true,"name":"enable.020"}],"textures":[{"sampler":0,"source":0,"name":"Char_1_final_Diffuse.png"}],"images":[{"uri":"Char_1_final_Diffuse.png"}],"samplers":[{"magFilter":9729,"minFilter":9987}],"skins":[{"inverseBindMatrices":28,"skeleton":1,"joints":[1,2,3,4,5],"name":"skeleton #0"}]}