{"asset":{"version":"2.0","generator":"babylon.js glTF exporter for 3dsmax 2022 v20220411.1"},"scene":0,"scenes":[{"nodes":[0,1]}],"nodes":[{"skin":0,"mesh":0,"translation":[-1.71266485E-08,1.513749,0.7607147],"rotation":[-0.7071067,-6.264794E-10,6.93362756E-10,0.7071068],"scale":[1.00000012,1.00000012,1.00000012],"name":"Char_5"},{"children":[2],"rotation":[8.14603354E-08,0.0,0.0,1.0],"name":"Armature_5"},{"children":[3,4,5],"translation":[-0.0139391441,0.000814872736,0.0],"rotation":[-0.5283719,0.493087232,0.505665,0.4711593],"scale":[1.0,1.00000012,1.00000012],"name":"Bone_Body"},{"translation":[1.81642747,-1.42312047E-07,-1.02192161E-07],"rotation":[-0.102635339,0.0,0.0,0.994719],"scale":[1.00000012,1.0,0.99999994],"name":"Bone_Head"},{"translation":[1.09731388,0.9136771,-0.0469752327],"rotation":[-1.70969159E-07,-0.999975264,-2.4364E-06,-0.00703157624],"scale":[0.724388659,1.0,1.0],"name":"Bone_R_Arm"},{"translation":[1.110062,-0.926278651,-0.046663817],"rotation":[-1.70519812E-07,-0.9999669,-2.40475447E-06,-0.008134949],"scale":[0.72438854,1.0,1.0],"name":"Bone_L_Arm"}],"meshes":[{"primitives":[{"attributes":{"POSITION":1,"NORMAL":2,"COLOR_0":3,"TEXCOORD_0":4,"JOINTS_0":5,"WEIGHTS_0":6},"indices":0,"material":0},{"attributes":{"POSITION":8,"NORMAL":9,"COLOR_0":10,"TEXCOORD_0":11,"JOINTS_0":12,"WEIGHTS_0":13},"indices":7,"material":1},{"attributes":{"POSITION":15,"NORMAL":16,"COLOR_0":17,"TEXCOORD_0":18,"JOINTS_0":19,"WEIGHTS_0":20},"indices":14,"material":2},{"attributes":{"POSITION":22,"NORMAL":23,"COLOR_0":24,"TEXCOORD_0":25,"JOINTS_0":26,"WEIGHTS_0":27},"indices":21,"material":3}],"name":"Char_5"}],"accessors":[{"bufferView":0,"componentType":5123,"count":681,"type":"SCALAR","name":"accessorIndices"},{"bufferView":1,"componentType":5126,"count":427,"max":[1.78157282,3.56625366,-0.695486844],"min":[-1.77606845,1.25638843,-2.12394619],"type":"VEC3","name":"accessorPositions"},{"bufferView":1,"byteOffset":5124,"componentType":5126,"count":427,"type":"VEC3","name":"accessorNormals"},{"bufferView":2,"componentType":5126,"count":427,"type":"VEC4","name":"accessorColors"},{"bufferView":3,"componentType":5126,"count":427,"type":"VEC2","name":"accessorUVs"},{"bufferView":4,"componentType":5123,"count":427,"type":"VEC4","name":"accessorJoints"},{"bufferView":2,"byteOffset":6832,"componentType":5126,"count":427,"type":"VEC4","name":"accessorWeights"},{"bufferView":0,"byteOffset":1364,"componentType":5123,"count":696,"type":"SCALAR","name":"accessorIndices"},{"bufferView":1,"byteOffset":10248,"componentType":5126,"count":720,"max":[1.78157282,2.93659735,-0.764515042],"min":[-1.78345454,0.7315086,-2.82460237],"type":"VEC3","name":"accessorPositions"},{"bufferView":1,"byteOffset":18888,"componentType":5126,"count":720,"type":"VEC3","name":"accessorNormals"},{"bufferView":2,"byteOffset":13664,"componentType":5126,"count":720,"type":"VEC4","name":"accessorColors"},{"bufferView":3,"byteOffset":3416,"componentType":5126,"count":720,"type":"VEC2","name":"accessorUVs"},{"bufferView":4,"byteOffset":3416,"componentType":5123,"count":720,"type":"VEC4","name":"accessorJoints"},{"bufferView":2,"byteOffset":25184,"componentType":5126,"count":720,"type":"VEC4","name":"accessorWeights"},{"bufferView":0,"byteOffset":2756,"componentType":5123,"count":1650,"type":"SCALAR","name":"accessorIndices"},{"bufferView":1,"byteOffset":27528,"componentType":5126,"count":1838,"max":[1.78157282,4.078826,-0.107342914],"min":[-1.78345454,0.7315086,-2.85902143],"type":"VEC3","name":"accessorPositions"},{"bufferView":1,"byteOffset":49584,"componentType":5126,"count":1838,"type":"VEC3","name":"accessorNormals"},{"bufferView":2,"byteOffset":36704,"componentType":5126,"count":1838,"type":"VEC4","name":"accessorColors"},{"bufferView":3,"byteOffset":9176,"componentType":5126,"count":1838,"type":"VEC2","name":"accessorUVs"},{"bufferView":4,"byteOffset":9176,"componentType":5123,"count":1838,"type":"VEC4","name":"accessorJoints"},{"bufferView":2,"byteOffset":66112,"componentType":5126,"count":1838,"type":"VEC4","name":"accessorWeights"},{"bufferView":0,"byteOffset":6056,"componentType":5123,"count":264,"type":"SCALAR","name":"accessorIndices"},{"bufferView":1,"byteOffset":71640,"componentType":5126,"count":154,"max":[1.537123,4.812278,-1.37468064],"min":[-1.512269,3.53910923,-2.04417038],"type":"VEC3","name":"accessorPositions"},{"bufferView":1,"byteOffset":73488,"componentType":5126,"count":154,"type":"VEC3","name":"accessorNormals"},{"bufferView":2,"byteOffset":95520,"componentType":5126,"count":154,"type":"VEC4","name":"accessorColors"},{"bufferView":3,"byteOffset":23880,"componentType":5126,"count":154,"type":"VEC2","name":"accessorUVs"},{"bufferView":4,"byteOffset":23880,"componentType":5123,"count":154,"type":"VEC4","name":"accessorJoints"},{"bufferView":2,"byteOffset":97984,"componentType":5126,"count":154,"type":"VEC4","name":"accessorWeights"},{"bufferView":5,"componentType":5126,"count":5,"type":"MAT4","name":"accessorInverseBindMatrices"},{"bufferView":6,"componentType":5126,"count":101,"max":[3.33333325],"min":[0.0],"type":"SCALAR","name":"accessorAnimationInput"},{"bufferView":7,"componentType":5126,"count":101,"type":"VEC3","name":"accessorAnimationPositions"},{"bufferView":8,"componentType":5126,"count":101,"type":"VEC4","name":"accessorAnimationRotations"},{"bufferView":7,"byteOffset":1212,"componentType":5126,"count":101,"type":"VEC3","name":"accessorAnimationScales"},{"bufferView":6,"byteOffset":404,"componentType":5126,"count":101,"max":[3.33333325],"min":[0.0],"type":"SCALAR","name":"accessorAnimationInput"},{"bufferView":7,"byteOffset":2424,"componentType":5126,"count":101,"type":"VEC3","name":"accessorAnimationPositions"},{"bufferView":8,"byteOffset":1616,"componentType":5126,"count":101,"type":"VEC4","name":"accessorAnimationRotations"},{"bufferView":7,"byteOffset":3636,"componentType":5126,"count":101,"type":"VEC3","name":"accessorAnimationScales"},{"bufferView":6,"byteOffset":808,"componentType":5126,"count":101,"max":[3.33333325],"min":[0.0],"type":"SCALAR","name":"accessorAnimationInput"},{"bufferView":7,"byteOffset":4848,"componentType":5126,"count":101,"type":"VEC3","name":"accessorAnimationPositions"},{"bufferView":8,"byteOffset":3232,"componentType":5126,"count":101,"type":"VEC4","name":"accessorAnimationRotations"},{"bufferView":7,"byteOffset":6060,"componentType":5126,"count":101,"type":"VEC3","name":"accessorAnimationScales"},{"bufferView":6,"byteOffset":1212,"componentType":5126,"count":101,"max":[3.33333325],"min":[0.0],"type":"SCALAR","name":"accessorAnimationInput"},{"bufferView":7,"byteOffset":7272,"componentType":5126,"count":101,"type":"VEC3","name":"accessorAnimationPositions"},{"bufferView":8,"byteOffset":4848,"componentType":5126,"count":101,"type":"VEC4","name":"accessorAnimationRotations"},{"bufferView":7,"byteOffset":8484,"componentType":5126,"count":101,"type":"VEC3","name":"accessorAnimationScales"}],"bufferViews":[{"buffer":0,"byteLength":6584,"name":"bufferViewScalar"},{"buffer":0,"byteOffset":6584,"byteLength":75336,"byteStride":12,"name":"bufferViewFloatVec3"},{"buffer":0,"byteOffset":81920,"byteLength":100448,"byteStride":16,"name":"bufferViewFloatVec4"},{"buffer":0,"byteOffset":182368,"byteLength":25112,"byteStride":8,"name":"bufferViewFloatVec2"},{"buffer":0,"byteOffset":207480,"byteLength":25112,"byteStride":8,"name":"bufferViewUnsignedShortVec4"},{"buffer":0,"byteOffset":232592,"byteLength":320,"name":"bufferViewFloatMat4"},{"buffer":0,"byteOffset":232912,"byteLength":1616,"name":"bufferViewAnimationFloatScalar"},{"buffer":0,"byteOffset":234528,"byteLength":9696,"name":"bufferViewAnimationFloatVec3"},{"buffer":0,"byteOffset":244224,"byteLength":6464,"name":"bufferViewAnimationFloatVec4"}],"buffers":[{"uri":"Char_5.bin","byteLength":250688}],"materials":[{"pbrMetallicRoughness":{"baseColorTexture":{"index":0},"metallicFactor":0.0,"roughnessFactor":0.5356144},"doubleSided":true,"name":"disable"},{"pbrMetallicRoughness":{"baseColorTexture":{"index":0},"metallicFactor":0.0,"roughnessFactor":0.5356144},"doubleSided":true,"name":"enable.018"},{"pbrMetallicRoughness":{"baseColorTexture":{"index":0},"metallicFactor":0.0,"roughnessFactor":0.5356144},"doubleSided":true,"name":"enable.019"},{"pbrMetallicRoughness":{"baseColorTexture":{"index":0},"metallicFactor":0.0,"roughnessFactor":0.5356144},"doubleSided":true,"name":"enable.016"}],"textures":[{"sampler":0,"source":0,"name":"Char_5_Final_Diffuse.png"}],"images":[{"uri":"Char_5_Final_Diffuse.png"}],"samplers":[{"magFilter":9729,"minFilter":9987}],"animations":[{"channels":[{"sampler":0,"target":{"node":2,"path":"translation"}},{"sampler":1,"target":{"node":2,"path":"rotation"}},{"sampler":2,"target":{"node":2,"path":"scale"}},{"sampler":3,"target":{"node":3,"path":"translation"}},{"sampler":4,"target":{"node":3,"path":"rotation"}},{"sampler":5,"target":{"node":3,"path":"scale"}},{"sampler":6,"target":{"node":4,"path":"translation"}},{"sampler":7,"target":{"node":4,"path":"rotation"}},{"sampler":8,"target":{"node":4,"path":"scale"}},{"sampler":9,"target":{"node":5,"path":"translation"}},{"sampler":10,"target":{"node":5,"path":"rotation"}},{"sampler":11,"target":{"node":5,"path":"scale"}}],"samplers":[{"input":29,"output":30},{"input":29,"output":31},{"input":29,"output":32},{"input":33,"output":34},{"input":33,"output":35},{"input":33,"output":36},{"input":37,"output":38},{"input":37,"output":39},{"input":37,"output":40},{"input":41,"output":42},{"input":41,"output":43},{"input":41,"output":44}],"name":"All Animations"}],"skins":[{"inverseBindMatrices":28,"skeleton":1,"joints":[1,2,3,4,5],"name":"skeleton #0"}]}