{"asset":{"version":"2.0","generator":"babylon.js glTF exporter for 3dsmax 2022 v20220411.1"},"scene":0,"scenes":[{"nodes":[0,1]}],"nodes":[{"skin":0,"mesh":0,"translation":[0.0,-1.110223E-18,-1.80878287E-25],"rotation":[8.146034E-08,0.0,0.0,1.0],"scale":[0.393700778,0.393700778,0.393700778],"name":"Leg_5"},{"children":[2,18,19],"scale":[0.393700778,0.393700778,0.393700778],"name":"Armature_5"},{"children":[3,8,13],"translation":[0.0,0.0,-0.2304589],"rotation":[-0.7071068,0.0,0.0,0.7071067],"name":"root"},{"children":[4],"name":"pivot_feet"},{"children":[5],"translation":[0.0,-0.01088388,0.04215639],"rotation":[0.133846641,0.03956645,-0.00534826238,0.9901974],"scale":[1.00000024,1.0,1.00000036],"name":"bn_tail_01"},{"children":[6],"translation":[0.0,-0.00598030351,0.05730451],"rotation":[0.313267529,0.0379132964,-0.01251759,0.9488253],"scale":[1.00000012,0.999999762,0.9999995],"name":"bn_tail_02"},{"children":[7],"translation":[5.298853E-09,-0.0109449588,0.0696876049],"rotation":[-0.0411606319,0.03989237,0.00164469727,0.998354554],"scale":[1.0,0.999999762,0.9999999],"name":"bn_tail_03"},{"translation":[-3.027916E-09,0.0102460068,0.06547345],"rotation":[-0.3111591,0.0394362062,0.00623634225,0.94951874],"scale":[1.00000024,1.00000012,1.00000048],"name":"bn_tail_04"},{"children":[9],"translation":[-0.0440540165,-0.00771445129,0.00143306109],"rotation":[-0.999616861,0.0,0.0,0.02767968],"scale":[1.0,0.99999994,0.99999994],"name":"bn_l_hipfix01"},{"children":[10],"translation":[0.0,0.00559166446,0.0],"rotation":[0.05310971,-0.0210320633,0.002844041,0.9983631],"scale":[1.00000012,1.00000012,0.99999994],"name":"bn_l_hip01"},{"children":[11],"translation":[-8.163262E-06,0.1079338,0.0150845051],"rotation":[-0.196752086,-1.2757022E-05,-8.43799E-06,0.980453253],"scale":[0.9999998,1.00000012,1.0],"name":"bn_l_knee"},{"children":[12],"translation":[8.169317E-06,0.08313164,-0.01807523],"rotation":[0.11691308,0.0211470854,0.00194494124,0.992915034],"scale":[0.9999998,0.9999997,1.0],"name":"bn_l_ankle"},{"translation":[-3.027916E-09,0.0193459913,0.0506587923],"rotation":[6.525637E-06,0.0,0.0,1.0],"scale":[1.0,0.9999999,0.9999998],"name":"bn_l_ball"},{"children":[14],"translation":[0.0440539829,-0.006472449,0.00276368228],"name":"bn_r_hipfix01"},{"children":[15],"translation":[0.0,-0.00559168868,0.0],"rotation":[0.0777837858,-0.0208118428,0.00197487464,0.99675107],"scale":[1.00000012,1.00000024,0.9999997],"name":"bn_r_hip01"},{"children":[16],"translation":[9.89523E-06,-0.10793373,-0.0150845777],"rotation":[-0.179509252,-1.449872E-05,-8.361022E-06,0.9837563],"scale":[1.0,0.9999999,0.9999998],"name":"bn_r_knee"},{"children":[17],"translation":[-9.89523E-06,-0.08313159,0.018075319],"rotation":[0.102398254,0.02084207,0.00180273631,0.9945235],"scale":[1.00000012,1.0,1.00000024],"name":"bn_r_ankle"},{"translation":[9.083748E-09,-0.0193459466,-0.05065893],"rotation":[7.334627E-06,0.0,0.0,1.0],"scale":[0.9999998,0.9999997,0.999999762],"name":"bn_r_ball"},{"translation":[-0.0508,0.09419617,0.0],"rotation":[-0.7071068,0.0,0.0,0.7071067],"name":"effect_pivot_wheel_01"},{"translation":[0.0508,0.09419615,0.0],"rotation":[-0.7071068,0.0,0.0,0.7071067],"name":"effect_pivot_wheel_02"}],"meshes":[{"primitives":[{"attributes":{"POSITION":1,"NORMAL":2,"TEXCOORD_0":3,"JOINTS_0":4,"WEIGHTS_0":5},"indices":0,"material":0},{"attributes":{"POSITION":7,"NORMAL":8,"TEXCOORD_0":9,"JOINTS_0":10,"WEIGHTS_0":11},"indices":6,"material":1}],"name":"Leg_5"}],"accessors":[{"bufferView":0,"componentType":5123,"count":3510,"type":"SCALAR","name":"accessorIndices"},{"bufferView":1,"componentType":5126,"count":2205,"max":[0.103626981,0.216703385,-0.000720395939],"min":[-0.103626974,-0.08352708,-0.231123567],"type":"VEC3","name":"accessorPositions"},{"bufferView":1,"byteOffset":26460,"componentType":5126,"count":2205,"type":"VEC3","name":"accessorNormals"},{"bufferView":2,"componentType":5126,"count":2205,"type":"VEC2","name":"accessorUVs"},{"bufferView":3,"componentType":5123,"count":2205,"type":"VEC4","name":"accessorJoints"},{"bufferView":4,"componentType":5126,"count":2205,"type":"VEC4","name":"accessorWeights"},{"bufferView":0,"byteOffset":7020,"componentType":5123,"count":432,"type":"SCALAR","name":"accessorIndices"},{"bufferView":1,"byteOffset":52920,"componentType":5126,"count":336,"max":[0.0974519551,-0.06657265,-0.0100288782],"min":[-0.09745195,-0.09124411,-0.028434474],"type":"VEC3","name":"accessorPositions"},{"bufferView":1,"byteOffset":56952,"componentType":5126,"count":336,"type":"VEC3","name":"accessorNormals"},{"bufferView":2,"byteOffset":17640,"componentType":5126,"count":336,"type":"VEC2","name":"accessorUVs"},{"bufferView":3,"byteOffset":17640,"componentType":5123,"count":336,"type":"VEC4","name":"accessorJoints"},{"bufferView":4,"byteOffset":35280,"componentType":5126,"count":336,"type":"VEC4","name":"accessorWeights"},{"bufferView":5,"componentType":5126,"count":19,"type":"MAT4","name":"accessorInverseBindMatrices"}],"bufferViews":[{"buffer":0,"byteLength":7884,"name":"bufferViewScalar"},{"buffer":0,"byteOffset":7884,"byteLength":60984,"byteStride":12,"name":"bufferViewFloatVec3"},{"buffer":0,"byteOffset":68868,"byteLength":20328,"byteStride":8,"name":"bufferViewFloatVec2"},{"buffer":0,"byteOffset":89196,"byteLength":20328,"byteStride":8,"name":"bufferViewUnsignedShortVec4"},{"buffer":0,"byteOffset":109524,"byteLength":40656,"byteStride":16,"name":"bufferViewFloatVec4"},{"buffer":0,"byteOffset":150180,"byteLength":1216,"name":"bufferViewFloatMat4"}],"buffers":[{"uri":"Leg_5.bin","byteLength":151396}],"materials":[{"pbrMetallicRoughness":{"baseColorTexture":{"index":0},"metallicFactor":0.0,"roughnessFactor":0.5678072},"doubleSided":true,"name":"enable.009"},{"pbrMetallicRoughness":{"baseColorTexture":{"index":0},"metallicFactor":0.0,"roughnessFactor":0.5678072},"doubleSided":true,"name":"enable.008"}],"textures":[{"sampler":0,"source":0,"name":"cat_legs_texture.png"}],"images":[{"uri":"cat_legs_texture.png"}],"samplers":[{"magFilter":9729,"minFilter":9987}],"skins":[{"inverseBindMatrices":12,"skeleton":1,"joints":[1,2,3,4,5,6,7,8,9,10,11,12,13,14,15,16,17,18,19],"name":"skeleton #0"}]}