{"asset":{"version":"2.0","generator":"babylon.js glTF exporter for 3dsmax 2022 v20220411.1"},"scene":0,"scenes":[{"nodes":[0,1]}],"nodes":[{"skin":0,"mesh":0,"translation":[-8.152266E-10,2.38257643E-11,6.951659E-11],"rotation":[8.146034E-08,0.0,-2.11758237E-22,1.0],"scale":[0.393700778,0.393700778,0.393700778],"name":"Leg_3"},{"children":[2,14,15],"scale":[0.393700778,0.393700778,0.393700778],"name":"Armature_3"},{"children":[3],"translation":[0.0,-0.000624432461,-0.224350646],"rotation":[-0.7063496,0.0271734148,-0.027191449,0.7068185],"scale":[1.0,0.9999999,1.0],"name":"root"},{"children":[4,9],"translation":[0.0,0.0336866044,0.0],"scale":[1.0,0.9999998,0.9999999],"name":"pivot_feet"},{"children":[5],"translation":[0.0508134067,-0.06684215,0.004562927],"rotation":[0.113395028,0.0,0.0,0.99355],"scale":[1.0,0.99999994,0.999999762],"name":"bn_r_hipfix01"},{"children":[6],"translation":[6.055832E-09,-1.21116637E-08,0.000402143574],"rotation":[-0.210103482,-0.05568929,0.0135293407,0.9759981],"scale":[1.0,0.9999999,0.9999999],"name":"bn_r_hip01"},{"children":[7],"translation":[6.055832E-09,-0.07348448,-0.0258805566],"rotation":[-0.06038877,0.0,0.0,0.9981749],"scale":[1.0,1.0,1.00000012],"name":"bn_r_knee"},{"children":[8],"translation":[6.055832E-09,-0.09382247,0.0309519675],"rotation":[0.154647961,-0.111335769,-0.0304103643,0.9812051],"scale":[0.9999998,0.9999999,0.9999999],"name":"bn_r_ankle"},{"translation":[1.21116637E-08,-0.0180813037,-0.0490447544],"scale":[1.0,1.00000012,1.00000012],"name":"bn_r_ball"},{"children":[10],"translation":[-0.0508134477,-0.0740284,0.00456293533],"rotation":[-1.0,0.0,0.0,-1.94704654E-07],"scale":[1.0,0.9999998,0.9999999],"name":"bn_l_hipfix01"},{"children":[11],"translation":[0.0,-1.21116637E-08,-0.0004021307],"rotation":[0.2128574,0.05733192,0.0167399179,0.975256145],"scale":[0.999999762,0.9999999,0.999999762],"name":"bn_l_hip01"},{"children":[12],"translation":[0.0,0.0734844953,0.0258805789],"rotation":[-0.214927554,0.0,0.0,0.97663],"scale":[1.00000012,0.9999999,0.9999999],"name":"bn_l_knee"},{"children":[13],"translation":[1.21116637E-08,0.09382227,-0.0309519749],"rotation":[-0.0004160588,-0.115213752,-0.02871922,0.9929254],"scale":[0.99999994,1.00000024,0.99999994],"name":"bn_l_ankle"},{"translation":[0.0,0.0180814136,0.04904467],"scale":[1.0,1.00000012,1.0],"name":"bn_l_ball"},{"translation":[-0.0508,0.09419616,0.0],"rotation":[-0.7071068,0.0,0.0,0.7071067],"name":"effect_pivot_wheel_01"},{"translation":[0.0508,0.09419615,0.0],"rotation":[-0.7071068,0.0,0.0,0.7071067],"name":"effect_pivot_wheel_02"}],"meshes":[{"primitives":[{"attributes":{"POSITION":1,"NORMAL":2,"TEXCOORD_0":3,"JOINTS_0":4,"WEIGHTS_0":5},"indices":0,"material":0},{"attributes":{"POSITION":7,"NORMAL":8,"TEXCOORD_0":9,"JOINTS_0":10,"WEIGHTS_0":11},"indices":6,"material":1},{"attributes":{"POSITION":13,"NORMAL":14,"TEXCOORD_0":15,"JOINTS_0":16,"WEIGHTS_0":17},"indices":12,"material":2}],"name":"Leg_3"}],"accessors":[{"bufferView":0,"componentType":5123,"count":5856,"type":"SCALAR","name":"accessorIndices"},{"bufferView":1,"componentType":5126,"count":3890,"max":[0.1059382,0.08042267,-3.017573E-08],"min":[-0.107389167,-0.113853782,-0.160133362],"type":"VEC3","name":"accessorPositions"},{"bufferView":1,"byteOffset":46680,"componentType":5126,"count":3890,"type":"VEC3","name":"accessorNormals"},{"bufferView":2,"componentType":5126,"count":3890,"type":"VEC2","name":"accessorUVs"},{"bufferView":3,"componentType":5123,"count":3890,"type":"VEC4","name":"accessorJoints"},{"bufferView":4,"componentType":5126,"count":3890,"type":"VEC4","name":"accessorWeights"},{"bufferView":0,"byteOffset":11712,"componentType":5123,"count":864,"type":"SCALAR","name":"accessorIndices"},{"bufferView":1,"byteOffset":93360,"componentType":5126,"count":576,"max":[0.1033972,0.04758998,-0.03077772],"min":[-0.09937918,-0.051254455,-0.117286809],"type":"VEC3","name":"accessorPositions"},{"bufferView":1,"byteOffset":100272,"componentType":5126,"count":576,"type":"VEC3","name":"accessorNormals"},{"bufferView":2,"byteOffset":31120,"componentType":5126,"count":576,"type":"VEC2","name":"accessorUVs"},{"bufferView":3,"byteOffset":31120,"componentType":5123,"count":576,"type":"VEC4","name":"accessorJoints"},{"bufferView":4,"byteOffset":62240,"componentType":5126,"count":576,"type":"VEC4","name":"accessorWeights"},{"bufferView":0,"byteOffset":13440,"componentType":5123,"count":1596,"type":"SCALAR","name":"accessorIndices"},{"bufferView":1,"byteOffset":107184,"componentType":5126,"count":1108,"max":[0.08078757,0.0733733848,-0.115803868],"min":[-0.08595216,-0.0440917574,-0.1406737],"type":"VEC3","name":"accessorPositions"},{"bufferView":1,"byteOffset":120480,"componentType":5126,"count":1108,"type":"VEC3","name":"accessorNormals"},{"bufferView":2,"byteOffset":35728,"componentType":5126,"count":1108,"type":"VEC2","name":"accessorUVs"},{"bufferView":3,"byteOffset":35728,"componentType":5123,"count":1108,"type":"VEC4","name":"accessorJoints"},{"bufferView":4,"byteOffset":71456,"componentType":5126,"count":1108,"type":"VEC4","name":"accessorWeights"},{"bufferView":5,"componentType":5126,"count":15,"type":"MAT4","name":"accessorInverseBindMatrices"}],"bufferViews":[{"buffer":0,"byteLength":16632,"name":"bufferViewScalar"},{"buffer":0,"byteOffset":16632,"byteLength":133776,"byteStride":12,"name":"bufferViewFloatVec3"},{"buffer":0,"byteOffset":150408,"byteLength":44592,"byteStride":8,"name":"bufferViewFloatVec2"},{"buffer":0,"byteOffset":195000,"byteLength":44592,"byteStride":8,"name":"bufferViewUnsignedShortVec4"},{"buffer":0,"byteOffset":239592,"byteLength":89184,"byteStride":16,"name":"bufferViewFloatVec4"},{"buffer":0,"byteOffset":328776,"byteLength":960,"name":"bufferViewFloatMat4"}],"buffers":[{"uri":"Leg_3.bin","byteLength":329736}],"materials":[{"pbrMetallicRoughness":{"baseColorTexture":{"index":0},"metallicFactor":0.0,"roughnessFactor":0.5678072},"doubleSided":true,"name":"enable.015"},{"pbrMetallicRoughness":{"baseColorTexture":{"index":0},"metallicFactor":0.0,"roughnessFactor":0.5356144},"doubleSided":true,"name":"enable.014"},{"pbrMetallicRoughness":{"baseColorTexture":{"index":0},"metallicFactor":0.0,"roughnessFactor":0.5356144},"doubleSided":true,"name":"enable"}],"textures":[{"sampler":0,"source":0,"name":"tall_boots_texture.png"}],"images":[{"uri":"tall_boots_texture.png"}],"samplers":[{"magFilter":9729,"minFilter":9987}],"skins":[{"inverseBindMatrices":18,"skeleton":1,"joints":[1,2,3,4,5,6,7,8,9,10,11,12,13,14,15],"name":"skeleton #0"}]}