{"asset":{"version":"2.0","generator":"babylon.js glTF exporter for 3dsmax 2022 v20220411.1"},"scene":0,"scenes":[{"nodes":[0,1]}],"nodes":[{"skin":0,"mesh":0,"translation":[0.0,-2.220446E-18,-3.61756573E-25],"rotation":[8.146034E-08,0.0,0.0,1.0],"scale":[0.393700778,0.393700778,0.393700778],"name":"Leg_1"},{"children":[2],"scale":[0.393700778,0.393700778,0.393700778],"name":"Armature_1"},{"children":[3,5,8,11,14,17,20],"translation":[0.0,0.00848527,-0.163800716],"rotation":[-0.707024753,0.0107727777,0.0107727777,0.7070247],"scale":[1.00000024,1.00000024,1.0],"name":"bn_body"},{"children":[4],"translation":[0.0,0.109085925,0.02343616],"name":"bn_legs"},{"translation":[0.0,0.00286191353,3.027916E-09],"name":"pivot_feet"},{"children":[6],"translation":[0.0,0.0066877217,0.10659194],"rotation":[0.0526224,0.0,0.0,0.99861443],"scale":[1.0,1.0,1.00000024],"name":"bn_tail_01"},{"children":[7],"translation":[0.0,0.00126420334,0.08400782],"rotation":[0.01208091,0.0,0.0,0.999927044],"scale":[1.0,0.9999999,0.9999999],"name":"bn_tail_02"},{"translation":[0.0,0.0730101839,-1.21116637E-08],"rotation":[-0.0006093271,0.0,0.0,0.999999762],"scale":[1.0,1.00000048,1.0],"name":"bn_tail_03"},{"children":[9,10],"translation":[0.0,-0.006329725,-0.113761052],"rotation":[-0.000725670543,0.0,0.0,0.999999762],"scale":[1.0,0.9999999,0.99999994],"name":"bn_head"},{"translation":[0.06293298,0.162325948,-0.07694065],"rotation":[0.1586575,0.0,0.0,0.987333655],"scale":[1.0,1.0,1.00000012],"name":"bn_r_ear"},{"translation":[-0.062933065,0.162325248,-0.0769405439],"rotation":[-0.9873337,0.0,0.0,0.1586574],"scale":[1.0,0.99999994,1.0],"name":"bn_l_ear"},{"children":[12],"translation":[0.05213564,-0.0708827451,-0.08685586],"rotation":[0.05633608,0.0497732162,-0.043479234,0.996222],"scale":[0.9999997,0.9999999,1.00000012],"name":"bn_r_shldr"},{"children":[13],"translation":[-6.055832E-09,-0.04347892,-0.00311952247],"rotation":[-0.3532945,0.0,0.0,0.9355121],"scale":[1.00000024,1.0,0.9999999],"name":"bn_r_elbow"},{"translation":[0.0,-0.03427149,0.00216157781],"rotation":[0.300165325,-0.05735805,0.008586153,0.95212245],"scale":[0.999999642,1.00000012,0.9999998],"name":"bn_r_wrist"},{"children":[15],"translation":[0.05213564,-0.0708827451,0.0819740444],"rotation":[-0.21664387,-0.0136348074,-0.0311311577,0.9756589],"scale":[1.00000012,0.99999994,0.99999994],"name":"bn_r_hip"},{"children":[16],"translation":[0.0,-0.0434789062,0.005421108],"rotation":[0.304070324,0.0,0.0,0.952649653],"scale":[1.00000012,1.0,0.99999994],"name":"bn_r_knee"},{"translation":[0.0,-0.03427151,-0.00637904368],"rotation":[-0.0906168446,0.0210772026,0.010344211,0.995609],"scale":[1.0,1.00000012,0.99999994],"name":"bn_r_ankle"},{"children":[18],"translation":[-0.052135542,-0.07088263,-0.08685596],"rotation":[-0.9442519,0.0285884812,0.0150280418,0.327635825],"scale":[1.0,0.99999994,1.0],"name":"bn_l_shldr"},{"children":[19],"translation":[-6.055832E-09,0.04347897,0.00311938324],"rotation":[-0.330254138,0.0,0.0,0.943892],"scale":[1.0,1.00000024,1.00000012],"name":"bn_l_elbow"},{"translation":[9.083748E-09,0.0342715643,-0.00216155639],"rotation":[0.002949877,0.0235841125,-0.00679175928,0.999694467],"scale":[1.0,0.9999999,0.9999999],"name":"bn_l_wrist"},{"children":[21],"translation":[-0.052135542,-0.07088263,0.08197404],"rotation":[-0.998035669,0.0423940346,-0.0345085673,0.0306060221],"scale":[0.9999999,1.00000012,1.00000024],"name":"bn_l_hip"},{"children":[22],"translation":[-6.055832E-09,0.0434789546,-0.005421114],"rotation":[0.301091343,0.0,0.0,0.9535953],"scale":[0.9999999,1.00000012,1.00000012],"name":"bn_l_knee"},{"translation":[2.11954116E-08,0.03427155,0.006378953],"rotation":[-0.330344349,-0.0406436138,-0.0156738646,0.942854762],"scale":[0.99999994,0.9999995,0.9999995],"name":"bn_l_ankle"}],"meshes":[{"primitives":[{"attributes":{"POSITION":1,"NORMAL":2,"COLOR_0":3,"TEXCOORD_0":4,"JOINTS_0":5,"WEIGHTS_0":6},"indices":0,"material":0},{"attributes":{"POSITION":8,"NORMAL":9,"COLOR_0":10,"TEXCOORD_0":11,"JOINTS_0":12,"WEIGHTS_0":13},"indices":7,"material":1},{"attributes":{"POSITION":15,"NORMAL":16,"COLOR_0":17,"TEXCOORD_0":18,"JOINTS_0":19,"WEIGHTS_0":20},"indices":14,"material":2},{"attributes":{"POSITION":22,"NORMAL":23,"COLOR_0":24,"TEXCOORD_0":25,"JOINTS_0":26,"WEIGHTS_0":27},"indices":21,"material":3}],"name":"Leg_1"}],"accessors":[{"bufferView":0,"componentType":5123,"count":1338,"type":"SCALAR","name":"accessorIndices"},{"bufferView":1,"componentType":5126,"count":645,"max":[0.09612691,0.224737957,5.191002E-05],"min":[-0.104565032,-0.241109967,-0.335412145],"type":"VEC3","name":"accessorPositions"},{"bufferView":1,"byteOffset":7740,"componentType":5126,"count":645,"type":"VEC3","name":"accessorNormals"},{"bufferView":2,"componentType":5126,"count":645,"type":"VEC4","name":"accessorColors"},{"bufferView":3,"componentType":5126,"count":645,"type":"VEC2","name":"accessorUVs"},{"bufferView":4,"componentType":5123,"count":645,"type":"VEC4","name":"accessorJoints"},{"bufferView":2,"byteOffset":10320,"componentType":5126,"count":645,"type":"VEC4","name":"accessorWeights"},{"bufferView":0,"byteOffset":2676,"componentType":5123,"count":456,"type":"SCALAR","name":"accessorIndices"},{"bufferView":1,"byteOffset":15480,"componentType":5126,"count":295,"max":[0.112837538,0.0850370154,-0.18795158],"min":[-0.115072869,-0.05518352,-0.277784675],"type":"VEC3","name":"accessorPositions"},{"bufferView":1,"byteOffset":19020,"componentType":5126,"count":295,"type":"VEC3","name":"accessorNormals"},{"bufferView":2,"byteOffset":20640,"componentType":5126,"count":295,"type":"VEC4","name":"accessorColors"},{"bufferView":3,"byteOffset":5160,"componentType":5126,"count":295,"type":"VEC2","name":"accessorUVs"},{"bufferView":4,"byteOffset":5160,"componentType":5123,"count":295,"type":"VEC4","name":"accessorJoints"},{"bufferView":2,"byteOffset":25360,"componentType":5126,"count":295,"type":"VEC4","name":"accessorWeights"},{"bufferView":0,"byteOffset":3588,"componentType":5123,"count":828,"type":"SCALAR","name":"accessorIndices"},{"bufferView":1,"byteOffset":22560,"componentType":5126,"count":534,"max":[0.151504636,-0.004822483,-0.11923378],"min":[-0.1507582,-0.103668019,-0.209815562],"type":"VEC3","name":"accessorPositions"},{"bufferView":1,"byteOffset":28968,"componentType":5126,"count":534,"type":"VEC3","name":"accessorNormals"},{"bufferView":2,"byteOffset":30080,"componentType":5126,"count":534,"type":"VEC4","name":"accessorColors"},{"bufferView":3,"byteOffset":7520,"componentType":5126,"count":534,"type":"VEC2","name":"accessorUVs"},{"bufferView":4,"byteOffset":7520,"componentType":5123,"count":534,"type":"VEC4","name":"accessorJoints"},{"bufferView":2,"byteOffset":38624,"componentType":5126,"count":534,"type":"VEC4","name":"accessorWeights"},{"bufferView":0,"byteOffset":5244,"componentType":5123,"count":12,"type":"SCALAR","name":"accessorIndices"},{"bufferView":1,"byteOffset":35376,"componentType":5126,"count":11,"max":[0.09395949,-0.174891233,-0.169015288],"min":[-0.0972576141,-0.17490828,-0.283593029],"type":"VEC3","name":"accessorPositions"},{"bufferView":1,"byteOffset":35508,"componentType":5126,"count":11,"type":"VEC3","name":"accessorNormals"},{"bufferView":2,"byteOffset":47168,"componentType":5126,"count":11,"type":"VEC4","name":"accessorColors"},{"bufferView":3,"byteOffset":11792,"componentType":5126,"count":11,"type":"VEC2","name":"accessorUVs"},{"bufferView":4,"byteOffset":11792,"componentType":5123,"count":11,"type":"VEC4","name":"accessorJoints"},{"bufferView":2,"byteOffset":47344,"componentType":5126,"count":11,"type":"VEC4","name":"accessorWeights"},{"bufferView":5,"componentType":5126,"count":22,"type":"MAT4","name":"accessorInverseBindMatrices"}],"bufferViews":[{"buffer":0,"byteLength":5268,"name":"bufferViewScalar"},{"buffer":0,"byteOffset":5268,"byteLength":35640,"byteStride":12,"name":"bufferViewFloatVec3"},{"buffer":0,"byteOffset":40908,"byteLength":47520,"byteStride":16,"name":"bufferViewFloatVec4"},{"buffer":0,"byteOffset":88428,"byteLength":11880,"byteStride":8,"name":"bufferViewFloatVec2"},{"buffer":0,"byteOffset":100308,"byteLength":11880,"byteStride":8,"name":"bufferViewUnsignedShortVec4"},{"buffer":0,"byteOffset":112188,"byteLength":1408,"name":"bufferViewFloatMat4"}],"buffers":[{"uri":"Leg_1.bin","byteLength":113596}],"materials":[{"pbrMetallicRoughness":{"baseColorTexture":{"index":0},"metallicFactor":0.0,"roughnessFactor":0.5678072},"doubleSided":true,"name":"enable.011"},{"pbrMetallicRoughness":{"baseColorTexture":{"index":0},"metallicFactor":0.0,"roughnessFactor":0.5356144},"doubleSided":true,"name":"enable.001"},{"pbrMetallicRoughness":{"baseColorTexture":{"index":0},"metallicFactor":0.0,"roughnessFactor":0.5356144},"doubleSided":true,"name":"enable.002"},{"pbrMetallicRoughness":{"baseColorTexture":{"index":0},"metallicFactor":0.0,"roughnessFactor":0.5356144},"doubleSided":true,"name":"disable.002"}],"textures":[{"sampler":0,"source":0,"name":"rideable_pig_regular_texture.png"}],"images":[{"uri":"rideable_pig_regular_texture.png"}],"samplers":[{"magFilter":9729,"minFilter":9987}],"skins":[{"inverseBindMatrices":28,"skeleton":1,"joints":[1,2,3,4,5,6,7,8,9,10,11,12,13,14,15,16,17,18,19,20,21,22],"name":"skeleton #0"}]}