{"asset":{"version":"2.0","generator":"babylon.js glTF exporter for 3dsmax 2022 v20220411.1"},"scene":0,"scenes":[{"nodes":[0,1]}],"nodes":[{"skin":0,"mesh":0,"translation":[-1.04308129E-09,-9.710829E-17,5.96046434E-10],"rotation":[8.146034E-08,-3.478583E-41,0.0,1.0],"scale":[0.393700778,0.393700778,0.393700778],"name":"Leg_4"},{"children":[2],"scale":[0.393700778,0.393700778,0.393700778],"name":"Armature_4"},{"children":[3,4,5],"translation":[0.0,0.03202382,-0.032187812],"rotation":[-0.7071068,0.0,0.0,0.7071067],"name":"bn_popcorn_box"},{"translation":[0.06284808,-0.0321878158,-0.0338474251],"rotation":[0.0,-0.117933571,0.0,0.993021548],"scale":[0.999999762,1.0,0.9999998],"name":"bn_r_foot"},{"translation":[-0.0622436441,-0.0321878158,-0.0313384347],"rotation":[-0.9930215,2.716432E-08,0.11793346,-1.99710882E-07],"scale":[0.99999845,1.0,0.999999762],"name":"bn_l_foot"},{"children":[6],"translation":[-2.53116887E-05,0.009762331,0.000880639069],"rotation":[1.255371E-07,-0.000398139382,4.800612E-05,0.9999999],"scale":[1.00000012,1.0,1.00000012],"name":"bn_body"},{"translation":[0.0,-3.027916E-09,-3.027916E-09],"scale":[1.00000024,1.0,1.00000024],"name":"pivot_feet"}],"meshes":[{"primitives":[{"attributes":{"POSITION":1,"NORMAL":2,"TEXCOORD_0":3,"JOINTS_0":4,"WEIGHTS_0":5},"indices":0,"material":0},{"attributes":{"POSITION":7,"NORMAL":8,"TEXCOORD_0":9,"JOINTS_0":10,"WEIGHTS_0":11},"indices":6,"material":1},{"attributes":{"POSITION":13,"NORMAL":14,"TEXCOORD_0":15,"JOINTS_0":16,"WEIGHTS_0":17},"indices":12,"material":2},{"attributes":{"POSITION":19,"NORMAL":20,"TEXCOORD_0":21,"JOINTS_0":22,"WEIGHTS_0":23},"indices":18,"material":3}],"name":"Leg_4"}],"accessors":[{"bufferView":0,"componentType":5123,"count":1686,"type":"SCALAR","name":"accessorIndices"},{"bufferView":1,"componentType":5126,"count":1154,"max":[0.127924562,0.0603215359,-0.000108678811],"min":[-0.127924562,-0.16151996,-0.3158205],"type":"VEC3","name":"accessorPositions"},{"bufferView":1,"byteOffset":13848,"componentType":5126,"count":1154,"type":"VEC3","name":"accessorNormals"},{"bufferView":2,"componentType":5126,"count":1154,"type":"VEC2","name":"accessorUVs"},{"bufferView":3,"componentType":5123,"count":1154,"type":"VEC4","name":"accessorJoints"},{"bufferView":4,"componentType":5126,"count":1154,"type":"VEC4","name":"accessorWeights"},{"bufferView":0,"byteOffset":3372,"componentType":5123,"count":3606,"type":"SCALAR","name":"accessorIndices"},{"bufferView":1,"byteOffset":27696,"componentType":5126,"count":2579,"max":[0.156783044,0.162281632,-0.00159917562],"min":[-0.15670231,-0.149660587,-0.320202172],"type":"VEC3","name":"accessorPositions"},{"bufferView":1,"byteOffset":58644,"componentType":5126,"count":2579,"type":"VEC3","name":"accessorNormals"},{"bufferView":2,"byteOffset":9232,"componentType":5126,"count":2579,"type":"VEC2","name":"accessorUVs"},{"bufferView":3,"byteOffset":9232,"componentType":5123,"count":2579,"type":"VEC4","name":"accessorJoints"},{"bufferView":4,"byteOffset":18464,"componentType":5126,"count":2579,"type":"VEC4","name":"accessorWeights"},{"bufferView":0,"byteOffset":10584,"componentType":5123,"count":660,"type":"SCALAR","name":"accessorIndices"},{"bufferView":1,"byteOffset":89592,"componentType":5126,"count":2929,"max":[0.156783044,0.162281632,-0.00159917562],"min":[-0.15670231,-0.149660587,-0.320202172],"type":"VEC3","name":"accessorPositions"},{"bufferView":1,"byteOffset":124740,"componentType":5126,"count":2929,"type":"VEC3","name":"accessorNormals"},{"bufferView":2,"byteOffset":29864,"componentType":5126,"count":2929,"type":"VEC2","name":"accessorUVs"},{"bufferView":3,"byteOffset":29864,"componentType":5123,"count":2929,"type":"VEC4","name":"accessorJoints"},{"bufferView":4,"byteOffset":59728,"componentType":5126,"count":2929,"type":"VEC4","name":"accessorWeights"},{"bufferView":0,"byteOffset":11904,"componentType":5123,"count":120,"type":"SCALAR","name":"accessorIndices"},{"bufferView":1,"byteOffset":159888,"componentType":5126,"count":44,"max":[0.09894997,0.155727923,-0.02962416],"min":[-0.0991840661,-0.142962545,-0.226186141],"type":"VEC3","name":"accessorPositions"},{"bufferView":1,"byteOffset":160416,"componentType":5126,"count":44,"type":"VEC3","name":"accessorNormals"},{"bufferView":2,"byteOffset":53296,"componentType":5126,"count":44,"type":"VEC2","name":"accessorUVs"},{"bufferView":3,"byteOffset":53296,"componentType":5123,"count":44,"type":"VEC4","name":"accessorJoints"},{"bufferView":4,"byteOffset":106592,"componentType":5126,"count":44,"type":"VEC4","name":"accessorWeights"},{"bufferView":5,"componentType":5126,"count":6,"type":"MAT4","name":"accessorInverseBindMatrices"}],"bufferViews":[{"buffer":0,"byteLength":12144,"name":"bufferViewScalar"},{"buffer":0,"byteOffset":12144,"byteLength":160944,"byteStride":12,"name":"bufferViewFloatVec3"},{"buffer":0,"byteOffset":173088,"byteLength":53648,"byteStride":8,"name":"bufferViewFloatVec2"},{"buffer":0,"byteOffset":226736,"byteLength":53648,"byteStride":8,"name":"bufferViewUnsignedShortVec4"},{"buffer":0,"byteOffset":280384,"byteLength":107296,"byteStride":16,"name":"bufferViewFloatVec4"},{"buffer":0,"byteOffset":387680,"byteLength":384,"name":"bufferViewFloatMat4"}],"buffers":[{"uri":"Leg_4.bin","byteLength":388064}],"materials":[{"pbrMetallicRoughness":{"baseColorTexture":{"index":0},"metallicFactor":0.0,"roughnessFactor":0.5678072},"doubleSided":true,"name":"enable.010"},{"pbrMetallicRoughness":{"baseColorTexture":{"index":0},"metallicFactor":0.0,"roughnessFactor":0.5678072},"doubleSided":true,"name":"enable.013"},{"pbrMetallicRoughness":{"baseColorTexture":{"index":0},"metallicFactor":0.0,"roughnessFactor":0.5678072},"doubleSided":true,"name":"enable.012"},{"pbrMetallicRoughness":{"baseColorTexture":{"index":0},"metallicFactor":0.0,"roughnessFactor":0.5356144},"doubleSided":true,"name":"disable"}],"textures":[{"sampler":0,"source":0,"name":"popcorn_box_texture.png"}],"images":[{"uri":"popcorn_box_texture.png"}],"samplers":[{"magFilter":9729,"minFilter":9987}],"skins":[{"inverseBindMatrices":24,"skeleton":1,"joints":[1,2,3,4,5,6],"name":"skeleton #0"}]}