{"asset":{"version":"2.0","generator":"babylon.js glTF exporter for 3dsmax 2022 v20220411.1"},"scene":0,"scenes":[{"nodes":[0,1]}],"nodes":[{"skin":0,"mesh":0,"translation":[0.0,2.79396471E-11,1.35041756E-10],"rotation":[8.192599E-08,-1.00776975E-28,-2.49600521E-31,1.0],"scale":[0.393700778,0.393700778,0.393700778],"name":"Leg_0"},{"children":[2,25,27],"scale":[0.393700778,0.393700778,0.393700778],"name":"Armature_0"},{"children":[3,4],"translation":[0.00107528106,-0.009377071,-0.2935577],"rotation":[-0.7427137,0.0,0.0,0.6696092],"scale":[1.0,0.9999998,0.9999998],"name":"main"},{"translation":[0.0,0.0,-3.027916E-09],"scale":[0.9999999,1.0,1.0],"name":"pivot_feet"},{"children":[5,15],"translation":[-0.000121261975,0.100295164,0.09105411],"rotation":[0.6839108,0.0,0.0,0.7295657],"scale":[0.9999999,0.9999999,0.9999999],"name":"wings"},{"children":[6,9,12],"translation":[0.000242501439,-2.42233273E-08,9.689331E-08],"rotation":[-0.9789428,0.178485885,-0.07004905,-0.07004902],"scale":[1.0,1.00000012,0.99999994],"name":"bn_l_wingsroot"},{"children":[7],"translation":[-0.0301737636,-0.0107861152,0.0246476475],"rotation":[-0.641340256,0.254146338,0.363535643,0.6260465],"scale":[0.999999642,1.00000024,1.0],"name":"bn_l_topwings_01"},{"children":[8],"translation":[-0.0749551654,1.81674949E-07,1.21116637E-08],"rotation":[0.009214265,0.0114109982,-0.1486221,0.988785267],"scale":[1.00000048,0.9999995,0.99999994],"name":"bn_l_topwings_02"},{"translation":[-0.100807652,2.42233273E-08,3.63349919E-08],"rotation":[0.000486214558,0.0163212027,0.0297720861,0.9994234],"scale":[1.0,1.00000024,1.0],"name":"bn_l_topwings_03"},{"children":[10],"translation":[-0.0261064842,0.00214301352,0.0006235811],"rotation":[-0.69790405,0.07103258,0.153853565,0.6958544],"scale":[0.9999999,1.00000048,1.0],"name":"bn_l_midwings_01"},{"children":[11],"translation":[-0.06534771,3.14903247E-07,7.26699838E-08],"rotation":[-0.00178827927,-0.0219123662,0.006869152,0.9997347],"scale":[1.0000006,0.9999995,0.9999996],"name":"bn_l_midwings_02"},{"translation":[-0.05056106,1.04160313E-06,-2.42233273E-08],"rotation":[0.000486199773,0.0163211022,0.0297721177,0.9994234],"scale":[1.0,1.0,1.00000012],"name":"bn_l_midwings_03"},{"children":[13],"translation":[-0.0263157748,-0.00371119543,-0.0194163043],"rotation":[-0.6917547,-0.198565453,-0.154780284,0.6768237],"scale":[0.999999762,0.999999642,1.0],"name":"bn_l_botwings_01"},{"children":[14],"translation":[-0.06459761,1.45339968E-07,-2.42233273E-08],"rotation":[-0.00134877209,-0.032138668,0.033453308,0.9989225],"scale":[1.00000119,1.00000107,1.0],"name":"bn_l_botwings_02"},{"translation":[-0.04449182,-1.21116642E-07,-3.63349919E-08],"rotation":[0.000486199831,0.0163211133,0.02977209,0.9994234],"scale":[0.9999998,0.9999999,0.999999762],"name":"bn_l_botwings_03"},{"children":[16,19,22],"rotation":[-0.07004905,0.07004903,0.178485751,0.9789428],"scale":[1.00000012,1.00000012,1.00000012],"name":"bn_r_wingsroot"},{"children":[17],"translation":[0.03017392,0.0107861394,-0.0246472359],"rotation":[-0.6436709,0.258999169,0.358613759,0.6245025],"scale":[0.9999991,1.00000012,1.0],"name":"bn_r_topwings_01"},{"children":[18],"translation":[0.0749552846,0.0,3.63349919E-08],"rotation":[0.00369699229,-0.0127295135,-0.148782626,0.9887811],"scale":[1.00000072,0.9999997,1.00000048],"name":"bn_r_topwings_02"},{"translation":[0.100807704,2.42233273E-08,-3.63349919E-08],"rotation":[0.000596147147,0.0200123545,0.0297701247,0.9993562],"scale":[0.99999994,1.0,1.0],"name":"bn_r_topwings_03"},{"children":[20],"translation":[0.0261065215,-0.00214300142,-0.0006235085],"rotation":[-0.6986346,0.07629086,0.14862062,0.695702],"scale":[0.999999166,0.9999999,0.999999762],"name":"bn_r_midwings_01"},{"children":[21],"translation":[0.06534758,2.42233273E-08,6.055832E-08],"rotation":[-0.002084028,-0.0262196735,0.00686966348,0.999630451],"scale":[1.00000024,0.999999464,0.9999997],"name":"bn_r_midwings_02"},{"translation":[0.05056123,-4.84466547E-08,-2.42233273E-08],"rotation":[0.000596147147,0.0200122762,0.0297701284,0.9993562],"scale":[0.9999999,1.0,1.0],"name":"bn_r_midwings_03"},{"children":[23],"translation":[0.02631564,0.003711159,0.0194164012],"rotation":[-0.6902018,-0.193615749,-0.159806371,0.6786725],"scale":[0.9999993,0.999999344,0.9999997],"name":"bn_r_botwings_01"},{"children":[24],"translation":[0.0645977557,0.0,-3.63349919E-08],"rotation":[-0.00103826751,-0.0247398149,0.0334603861,0.9991333],"scale":[1.00000083,1.00000107,0.99999994],"name":"bn_r_botwings_02"},{"translation":[0.044491943,4.84466547E-08,1.21116637E-08],"rotation":[0.0005961508,0.0200122688,0.0297700875,0.9993562],"scale":[1.0,1.00000012,0.99999994],"name":"bn_r_botwings_03"},{"children":[26],"translation":[0.05970585,0.06170149,-0.230513111],"rotation":[-0.383907348,-0.384703726,-0.5992643,0.5877929],"scale":[1.00000036,1.00000024,1.00000036],"name":"bn_r_foot"},{"translation":[0.06810138,6.055832E-09,-3.027916E-08],"rotation":[0.0,0.05289358,0.0,0.9986002],"scale":[0.9999999,1.0,1.0],"name":"bn_r_toe"},{"children":[28],"translation":[-0.0575510152,0.0727259,-0.157553136],"rotation":[-0.498833328,-0.5047935,0.496919066,-0.499419957],"scale":[1.00000036,1.00397754,1.0000006],"name":"bn_l_foot"},{"translation":[-0.06810139,1.21116637E-08,3.027916E-08],"rotation":[0.0,0.0540858433,0.0,0.998536348],"scale":[1.00000024,1.0,1.00000036],"name":"bn_l_toe"}],"meshes":[{"primitives":[{"attributes":{"POSITION":1,"NORMAL":2,"TEXCOORD_0":3,"JOINTS_0":4,"WEIGHTS_0":5},"indices":0,"material":0},{"attributes":{"POSITION":7,"NORMAL":8,"TEXCOORD_0":9,"JOINTS_0":10,"WEIGHTS_0":11},"indices":6,"material":1},{"attributes":{"POSITION":13,"NORMAL":14,"TEXCOORD_0":15,"JOINTS_0":16,"WEIGHTS_0":17},"indices":12,"material":2},{"attributes":{"POSITION":19,"NORMAL":20,"TEXCOORD_0":21,"JOINTS_0":22,"WEIGHTS_0":23},"indices":18,"material":3},{"attributes":{"POSITION":25,"NORMAL":26,"TEXCOORD_0":27,"JOINTS_0":28,"WEIGHTS_0":29},"indices":24,"material":4},{"attributes":{"POSITION":31,"NORMAL":32,"TEXCOORD_0":33,"JOINTS_0":34,"WEIGHTS_0":35},"indices":30,"material":5}],"name":"Leg_0"}],"accessors":[{"bufferView":0,"componentType":5123,"count":7488,"type":"SCALAR","name":"accessorIndices"},{"bufferView":1,"componentType":5126,"count":4880,"max":[0.0830962658,0.07251846,-0.0577517],"min":[-0.0816679448,-0.004526062,-0.1831971],"type":"VEC3","name":"accessorPositions"},{"bufferView":1,"byteOffset":58560,"componentType":5126,"count":4880,"type":"VEC3","name":"accessorNormals"},{"bufferView":2,"componentType":5126,"count":4880,"type":"VEC2","name":"accessorUVs"},{"bufferView":3,"componentType":5123,"count":4880,"type":"VEC4","name":"accessorJoints"},{"bufferView":4,"componentType":5126,"count":4880,"type":"VEC4","name":"accessorWeights"},{"bufferView":0,"byteOffset":14976,"componentType":5123,"count":9360,"type":"SCALAR","name":"accessorIndices"},{"bufferView":1,"byteOffset":117120,"componentType":5126,"count":6480,"max":[0.0894487947,0.06455629,-0.0447196364],"min":[-0.08795176,-0.00581531832,-0.196507454],"type":"VEC3","name":"accessorPositions"},{"bufferView":1,"byteOffset":194880,"componentType":5126,"count":6480,"type":"VEC3","name":"accessorNormals"},{"bufferView":2,"byteOffset":39040,"componentType":5126,"count":6480,"type":"VEC2","name":"accessorUVs"},{"bufferView":3,"byteOffset":39040,"componentType":5123,"count":6480,"type":"VEC4","name":"accessorJoints"},{"bufferView":4,"byteOffset":78080,"componentType":5126,"count":6480,"type":"VEC4","name":"accessorWeights"},{"bufferView":0,"byteOffset":33696,"componentType":5123,"count":1080,"type":"SCALAR","name":"accessorIndices"},{"bufferView":1,"byteOffset":272640,"componentType":5126,"count":720,"max":[0.09161187,0.0899299756,-0.0363928676],"min":[-0.09014787,0.000556428,-0.2539737],"type":"VEC3","name":"accessorPositions"},{"bufferView":1,"byteOffset":281280,"componentType":5126,"count":720,"type":"VEC3","name":"accessorNormals"},{"bufferView":2,"byteOffset":90880,"componentType":5126,"count":720,"type":"VEC2","name":"accessorUVs"},{"bufferView":3,"byteOffset":90880,"componentType":5123,"count":720,"type":"VEC4","name":"accessorJoints"},{"bufferView":4,"byteOffset":181760,"componentType":5126,"count":720,"type":"VEC4","name":"accessorWeights"},{"bufferView":0,"byteOffset":35856,"componentType":5123,"count":480,"type":"SCALAR","name":"accessorIndices"},{"bufferView":1,"byteOffset":289920,"componentType":5126,"count":320,"max":[0.185803309,0.146004289,-0.392436981],"min":[-0.1828818,0.06650707,-0.5520541],"type":"VEC3","name":"accessorPositions"},{"bufferView":1,"byteOffset":293760,"componentType":5126,"count":320,"type":"VEC3","name":"accessorNormals"},{"bufferView":2,"byteOffset":96640,"componentType":5126,"count":320,"type":"VEC2","name":"accessorUVs"},{"bufferView":3,"byteOffset":96640,"componentType":5123,"count":320,"type":"VEC4","name":"accessorJoints"},{"bufferView":4,"byteOffset":193280,"componentType":5126,"count":320,"type":"VEC4","name":"accessorWeights"},{"bufferView":0,"byteOffset":36816,"componentType":5123,"count":576,"type":"SCALAR","name":"accessorIndices"},{"bufferView":1,"byteOffset":297600,"componentType":5126,"count":148,"max":[0.163030654,0.132948175,-0.411538869],"min":[-0.16331999,0.060002774,-0.6630757],"type":"VEC3","name":"accessorPositions"},{"bufferView":1,"byteOffset":299376,"componentType":5126,"count":148,"type":"VEC3","name":"accessorNormals"},{"bufferView":2,"byteOffset":99200,"componentType":5126,"count":148,"type":"VEC2","name":"accessorUVs"},{"bufferView":3,"byteOffset":99200,"componentType":5123,"count":148,"type":"VEC4","name":"accessorJoints"},{"bufferView":4,"byteOffset":198400,"componentType":5126,"count":148,"type":"VEC4","name":"accessorWeights"},{"bufferView":0,"byteOffset":37968,"componentType":5123,"count":480,"type":"SCALAR","name":"accessorIndices"},{"bufferView":1,"byteOffset":301152,"componentType":5126,"count":120,"max":[0.180025235,0.17606014,-0.311829567],"min":[-0.176065892,0.07613502,-0.4234044],"type":"VEC3","name":"accessorPositions"},{"bufferView":1,"byteOffset":302592,"componentType":5126,"count":120,"type":"VEC3","name":"accessorNormals"},{"bufferView":2,"byteOffset":100384,"componentType":5126,"count":120,"type":"VEC2","name":"accessorUVs"},{"bufferView":3,"byteOffset":100384,"componentType":5123,"count":120,"type":"VEC4","name":"accessorJoints"},{"bufferView":4,"byteOffset":200768,"componentType":5126,"count":120,"type":"VEC4","name":"accessorWeights"},{"bufferView":5,"componentType":5126,"count":28,"type":"MAT4","name":"accessorInverseBindMatrices"}],"bufferViews":[{"buffer":0,"byteLength":38928,"name":"bufferViewScalar"},{"buffer":0,"byteOffset":38928,"byteLength":304032,"byteStride":12,"name":"bufferViewFloatVec3"},{"buffer":0,"byteOffset":342960,"byteLength":101344,"byteStride":8,"name":"bufferViewFloatVec2"},{"buffer":0,"byteOffset":444304,"byteLength":101344,"byteStride":8,"name":"bufferViewUnsignedShortVec4"},{"buffer":0,"byteOffset":545648,"byteLength":202688,"byteStride":16,"name":"bufferViewFloatVec4"},{"buffer":0,"byteOffset":748336,"byteLength":1792,"name":"bufferViewFloatMat4"}],"buffers":[{"uri":"Leg_0.bin","byteLength":750128}],"materials":[{"pbrMetallicRoughness":{"baseColorFactor":[0.5,0.5,0.5,1.0],"metallicFactor":0.0,"roughnessFactor":0.5678072},"doubleSided":true,"name":"disable.001"},{"pbrMetallicRoughness":{"baseColorFactor":[0.181295514,0.378,0.14553,1.0],"metallicFactor":0.0,"roughnessFactor":0.5678072},"doubleSided":true,"name":"enable.003"},{"pbrMetallicRoughness":{"baseColorFactor":[0.324,0.140752,0.0437399969,1.0],"metallicFactor":0.0,"roughnessFactor":0.5678072},"doubleSided":true,"name":"enable.004"},{"pbrMetallicRoughness":{"baseColorTexture":{"index":0},"metallicFactor":0.0,"roughnessFactor":0.5678072},"doubleSided":true,"name":"enable.005"},{"pbrMetallicRoughness":{"baseColorTexture":{"index":0},"metallicFactor":0.0,"roughnessFactor":0.5678072},"doubleSided":true,"name":"enable.006"},{"pbrMetallicRoughness":{"baseColorTexture":{"index":0},"metallicFactor":0.0,"roughnessFactor":0.5678072},"doubleSided":true,"name":"enable.007"}],"textures":[{"sampler":0,"source":0,"name":"fairy_wings_texture.png"}],"images":[{"uri":"fairy_wings_texture.png"}],"samplers":[{"magFilter":9729,"minFilter":9987}],"skins":[{"inverseBindMatrices":36,"skeleton":1,"joints":[1,2,3,4,5,6,7,8,9,10,11,12,13,14,15,16,17,18,19,20,21,22,23,24,25,26,27,28],"name":"skeleton #0"}]}