{"asset":{"version":"2.0","generator":"babylon.js glTF exporter for 3dsmax 2022 v20220411.1"},"scene":0,"scenes":[{"nodes":[0,1]}],"nodes":[{"skin":0,"mesh":0,"translation":[0.0,-9.043915E-25,5.55111438E-18],"rotation":[8.146034E-08,0.0,0.0,1.0],"scale":[0.393700778,0.393700778,0.393700778],"name":"Leg_2"},{"children":[2,3,4],"scale":[0.393700778,0.393700778,0.393700778],"name":"Armature_2"},{"translation":[-0.1016,0.2032,0.0],"name":"effect_pivot_leg_01"},{"translation":[0.1016,0.2032,0.0],"name":"effect_pivot_leg_02"},{"children":[5,9,13],"translation":[0.0,-0.03855667,-0.1086197],"rotation":[-0.7026487,0.0,0.0,0.711537],"name":"bn_bike"},{"children":[6,7,8],"translation":[0.0,-0.01939852,0.106721982],"scale":[0.9999999,0.999999762,0.999999762],"name":"bn_pipes_01"},{"translation":[0.0,0.0453101,0.113905616],"rotation":[0.707106769,0.0,0.0,0.707106769],"scale":[0.4033193,0.40331924,0.40331924],"name":"bn_r_pipe_01"},{"translation":[-0.04941959,-0.0283038076,0.037295457],"rotation":[0.705813348,-0.04274977,-0.02335764,0.7067209],"scale":[0.4033194,0.40331912,0.403319329],"name":"bn_r_pipe_02"},{"translation":[0.04941951,-0.0283039156,0.0372953974],"rotation":[-0.7067209,-0.0233580116,0.04274938,0.705813348],"scale":[0.403319359,0.40331918,0.403319329],"name":"bn_l_pipe_03"},{"children":[10,11,12],"translation":[0.0,-0.03879493,0.107051663],"scale":[0.9999999,0.999999762,0.999999762],"name":"bn_pipes_02"},{"translation":[-0.0367579833,0.0302874073,0.0292376764],"rotation":[0.612945437,-0.06358924,-0.009572847,0.787504],"scale":[0.403319418,0.403319418,0.4033194],"name":"bn_r_pipe_04"},{"translation":[0.0,0.0005463571,0.0907565],"rotation":[0.707106769,0.0,0.0,0.707106769],"scale":[0.4033193,0.40331924,0.40331924],"name":"bn_r_pipe_05"},{"translation":[0.0367578678,0.0302874856,0.0292376764],"rotation":[-0.7875041,-0.009572759,0.0635893643,0.6129453],"scale":[0.403319448,0.403319418,0.403319418],"name":"bn_l_pipe_06"},{"children":[14,16,17,18,19],"translation":[0.0,0.0998690352,0.103151515],"rotation":[-0.05013293,0.0,0.0,0.99874264],"scale":[0.9999999,0.9999998,0.9999998],"name":"bn_hips"},{"children":[15],"translation":[0.0,0.05173875,0.00730133476],"rotation":[-0.05366817,0.0,0.0,0.9985588],"scale":[1.0,1.00000012,1.00000012],"name":"bn_body"},{"name":"pivot_feet"},{"translation":[-0.09222057,0.00190447434,0.01060404],"rotation":[-0.0294978153,0.00265864236,-0.0897269,0.9955259],"scale":[1.0,0.9999999,0.9999999],"name":"bn_r_cloth_01"},{"translation":[-0.09267074,-0.0064575756,0.04086399],"rotation":[-0.177006155,-0.00632942654,-0.06525974,0.9820234],"scale":[1.0,0.9999999,1.0],"name":"bn_r_cloth_02"},{"translation":[0.09702668,0.004188407,0.008372732],"rotation":[-0.993313968,-0.114983559,0.00118498062,0.0102367047],"scale":[0.999999762,0.9999998,0.99999994],"name":"bn_l_cloth_01"},{"translation":[0.09480144,-0.005942176,0.0388244241],"rotation":[-0.98831594,-0.105755664,0.0123049142,-0.109068789],"scale":[0.9999998,0.99999994,0.99999994],"name":"bn_l_cloth_02"}],"meshes":[{"primitives":[{"attributes":{"POSITION":1,"NORMAL":2,"TEXCOORD_0":3,"JOINTS_0":4,"WEIGHTS_0":5},"indices":0,"material":0},{"attributes":{"POSITION":7,"NORMAL":8,"TEXCOORD_0":9,"JOINTS_0":10,"WEIGHTS_0":11},"indices":6,"material":1},{"attributes":{"POSITION":13,"NORMAL":14,"TEXCOORD_0":15,"JOINTS_0":16,"WEIGHTS_0":17},"indices":12,"material":2}],"name":"Leg_2"}],"accessors":[{"bufferView":0,"componentType":5123,"count":1332,"type":"SCALAR","name":"accessorIndices"},{"bufferView":1,"componentType":5126,"count":924,"max":[0.129514933,0.189401224,-0.07930093],"min":[-0.129514933,-0.296534777,-0.279216379],"type":"VEC3","name":"accessorPositions"},{"bufferView":1,"byteOffset":11088,"componentType":5126,"count":924,"type":"VEC3","name":"accessorNormals"},{"bufferView":2,"componentType":5126,"count":924,"type":"VEC2","name":"accessorUVs"},{"bufferView":3,"componentType":5123,"count":924,"type":"VEC4","name":"accessorJoints"},{"bufferView":4,"componentType":5126,"count":924,"type":"VEC4","name":"accessorWeights"},{"bufferView":0,"byteOffset":2664,"componentType":5123,"count":5742,"type":"SCALAR","name":"accessorIndices"},{"bufferView":1,"byteOffset":22176,"componentType":5126,"count":3840,"max":[0.124035381,0.212456867,-0.0166249163],"min":[-0.124035381,-0.252994329,-0.27016753],"type":"VEC3","name":"accessorPositions"},{"bufferView":1,"byteOffset":68256,"componentType":5126,"count":3840,"type":"VEC3","name":"accessorNormals"},{"bufferView":2,"byteOffset":7392,"componentType":5126,"count":3840,"type":"VEC2","name":"accessorUVs"},{"bufferView":3,"byteOffset":7392,"componentType":5123,"count":3840,"type":"VEC4","name":"accessorJoints"},{"bufferView":4,"byteOffset":14784,"componentType":5126,"count":3840,"type":"VEC4","name":"accessorWeights"},{"bufferView":0,"byteOffset":14148,"componentType":5123,"count":1710,"type":"SCALAR","name":"accessorIndices"},{"bufferView":1,"byteOffset":114336,"componentType":5126,"count":1226,"max":[0.0961851254,0.122068055,-0.148923978],"min":[-0.09618519,-0.038788937,-0.2642095],"type":"VEC3","name":"accessorPositions"},{"bufferView":1,"byteOffset":129048,"componentType":5126,"count":1226,"type":"VEC3","name":"accessorNormals"},{"bufferView":2,"byteOffset":38112,"componentType":5126,"count":1226,"type":"VEC2","name":"accessorUVs"},{"bufferView":3,"byteOffset":38112,"componentType":5123,"count":1226,"type":"VEC4","name":"accessorJoints"},{"bufferView":4,"byteOffset":76224,"componentType":5126,"count":1226,"type":"VEC4","name":"accessorWeights"},{"bufferView":5,"componentType":5126,"count":19,"type":"MAT4","name":"accessorInverseBindMatrices"}],"bufferViews":[{"buffer":0,"byteLength":17568,"name":"bufferViewScalar"},{"buffer":0,"byteOffset":17568,"byteLength":143760,"byteStride":12,"name":"bufferViewFloatVec3"},{"buffer":0,"byteOffset":161328,"byteLength":47920,"byteStride":8,"name":"bufferViewFloatVec2"},{"buffer":0,"byteOffset":209248,"byteLength":47920,"byteStride":8,"name":"bufferViewUnsignedShortVec4"},{"buffer":0,"byteOffset":257168,"byteLength":95840,"byteStride":16,"name":"bufferViewFloatVec4"},{"buffer":0,"byteOffset":353008,"byteLength":1216,"name":"bufferViewFloatMat4"}],"buffers":[{"uri":"Leg_2.bin","byteLength":354224}],"materials":[{"pbrMetallicRoughness":{"baseColorTexture":{"index":0},"metallicFactor":0.0,"roughnessFactor":0.5678072},"doubleSided":true,"name":"enable.016"},{"pbrMetallicRoughness":{"baseColorTexture":{"index":0},"metallicFactor":0.0,"roughnessFactor":0.5678072},"doubleSided":true,"name":"enable.017"},{"pbrMetallicRoughness":{"baseColorTexture":{"index":0},"metallicFactor":0.0,"roughnessFactor":0.5678072},"doubleSided":true,"name":"enable.018"}],"textures":[{"sampler":0,"source":0,"name":"hoverbike_texture.png"}],"images":[{"uri":"hoverbike_texture.png"}],"samplers":[{"magFilter":9729,"minFilter":9987}],"skins":[{"inverseBindMatrices":18,"skeleton":1,"joints":[1,2,3,4,5,6,7,8,9,10,11,12,13,14,15,16,17,18,19],"name":"skeleton #0"}]}